<svg xmlns="http://www.w3.org/2000/svg" width="256" height="197" viewBox="0 0 256 197" version="1.1">
	<path d="M 1 2.429 C 1 4.563, 1.656 4.994, 6.403 5.980 C 13.943 7.545, 22.682 13.146, 34.690 24.111 L 44.974 33.500 44.674 94 C 44.408 147.680, 44.181 155.168, 42.654 160.425 C 38.819 173.636, 32.087 181.557, 19.785 187.333 C 14.416 189.854, 13.036 190.959, 13.020 192.750 L 13 195 47.500 195 L 82 195 82 192.723 C 82 190.885, 80.787 189.917, 75.715 187.707 C 67.614 184.178, 59.613 177.140, 56.309 170.637 C 50.617 159.433, 50.681 160.222, 50.260 97.145 C 50.022 61.681, 50.232 38.929, 50.793 39.145 C 51.301 39.340, 89.135 74.825, 134.868 118 C 191.857 171.802, 218.802 196.600, 220.509 196.816 L 223 197.133 223 123.639 C 223 47.266, 223.348 39.496, 227.239 29.083 C 230.030 21.612, 239.075 12.633, 248.250 8.223 C 253.907 5.505, 255 4.576, 255 2.490 L 255 0 220.500 0 L 186 0 186 2.413 C 186 4.419, 187.257 5.448, 193.439 8.502 C 201.709 12.589, 210.035 20.478, 212.685 26.739 C 217.310 37.669, 217.321 37.820, 217.736 95 L 218.130 149.500 214.815 146.380 C 212.992 144.664, 178.425 111.637, 138 72.986 C 97.499 34.264, 63.055 2.104, 61.282 1.357 C 58.826 0.321, 51.306 0, 29.532 0 L 1 0 1 2.429" stroke="none" fill="#C8102E" fill-rule="evenodd"/>
</svg>