<svg width="28" height="34" viewBox="0 0 28 34" fill="none" xmlns="http://www.w3.org/2000/svg">
<path d="M0.884943 11V0.818182H4.90199C5.67424 0.818182 6.33215 0.965672 6.87571 1.26065C7.41927 1.55232 7.83357 1.95833 8.11861 2.47869C8.40696 2.99574 8.55114 3.59233 8.55114 4.26847C8.55114 4.9446 8.4053 5.54119 8.11364 6.05824C7.82197 6.57528 7.39938 6.97798 6.84588 7.26634C6.29569 7.55469 5.6295 7.69886 4.8473 7.69886H2.28693V5.97372H4.49929C4.91359 5.97372 5.25497 5.90246 5.52344 5.75994C5.79522 5.61411 5.9974 5.41359 6.12997 5.15838C6.26586 4.89986 6.33381 4.60322 6.33381 4.26847C6.33381 3.9304 6.26586 3.63542 6.12997 3.38352C5.9974 3.12831 5.79522 2.93111 5.52344 2.7919C5.25166 2.64938 4.90696 2.57812 4.48935 2.57812H3.03764V11H0.884943ZM9.9494 11V0.818182H16.8102V2.59304H12.1021V5.01918H16.4572V6.79403H12.1021V9.22514H16.8301V11H9.9494ZM20.2766 11H17.9698L21.4847 0.818182H24.2589L27.7688 11H25.462L22.9116 3.14489H22.832L20.2766 11ZM20.1325 6.99787H25.5813V8.67827H20.1325V6.99787ZM9.86861 15.3828H7.69105C7.65128 15.1011 7.57008 14.8509 7.44744 14.6321C7.32481 14.41 7.16738 14.2211 6.97514 14.0653C6.78291 13.9096 6.56084 13.7902 6.30895 13.7074C6.06037 13.6245 5.79025 13.5831 5.49858 13.5831C4.97159 13.5831 4.51255 13.714 4.12145 13.9759C3.73035 14.2344 3.42708 14.6122 3.21165 15.1094C2.99621 15.6032 2.88849 16.2031 2.88849 16.9091C2.88849 17.6349 2.99621 18.2448 3.21165 18.7386C3.4304 19.2325 3.73532 19.6054 4.12642 19.8572C4.51752 20.1091 4.96993 20.2351 5.48366 20.2351C5.77202 20.2351 6.03883 20.197 6.28409 20.1207C6.53267 20.0445 6.75308 19.9335 6.94531 19.7876C7.13755 19.6385 7.29664 19.4579 7.42259 19.2457C7.55185 19.0336 7.64134 18.7917 7.69105 18.5199L9.86861 18.5298C9.81226 18.9972 9.6714 19.4479 9.44602 19.8821C9.22396 20.313 8.92401 20.6991 8.54617 21.0405C8.17164 21.3786 7.7242 21.647 7.20384 21.8459C6.68679 22.0414 6.1018 22.1392 5.44886 22.1392C4.54072 22.1392 3.72869 21.9337 3.01278 21.5227C2.30019 21.1117 1.73674 20.5168 1.32244 19.7379C0.911458 18.959 0.705966 18.0161 0.705966 16.9091C0.705966 15.7988 0.914773 14.8542 1.33239 14.0753C1.75 13.2964 2.31676 12.7031 3.03267 12.2955C3.74858 11.8845 4.55398 11.679 5.44886 11.679C6.03883 11.679 6.5857 11.7618 7.08949 11.9276C7.59659 12.0933 8.04569 12.3352 8.43679 12.6534C8.82789 12.9683 9.14607 13.3544 9.39134 13.8118C9.63991 14.2692 9.79901 14.7929 9.86861 15.3828ZM11.4123 22V11.8182H13.565V16.0192H17.935V11.8182H20.0827V22H17.935V17.794H13.565V22H11.4123ZM0.884943 33V22.8182H3.03764V31.2251H7.4027V33H0.884943ZM10.9661 33.1442C10.4789 33.1442 10.0447 33.0597 9.66353 32.8906C9.28237 32.7183 8.98076 32.4647 8.7587 32.13C8.53995 31.7919 8.43058 31.371 8.43058 30.8672C8.43058 30.4429 8.50846 30.0866 8.66424 29.7983C8.82002 29.5099 9.03214 29.2779 9.3006 29.1023C9.56907 28.9266 9.87399 28.794 10.2154 28.7045C10.5601 28.6151 10.9213 28.5521 11.2992 28.5156C11.7433 28.4692 12.1013 28.4261 12.373 28.3864C12.6448 28.3433 12.842 28.2803 12.9647 28.1974C13.0873 28.1146 13.1486 27.992 13.1486 27.8295V27.7997C13.1486 27.4848 13.0492 27.2412 12.8503 27.0689C12.6548 26.8965 12.3764 26.8104 12.0151 26.8104C11.6339 26.8104 11.3307 26.8949 11.1053 27.0639C10.8799 27.2296 10.7308 27.4384 10.6578 27.6903L8.69904 27.5312C8.79847 27.0672 8.99402 26.6662 9.28569 26.3281C9.57736 25.9867 9.95354 25.7249 10.4142 25.5426C10.8783 25.357 11.4152 25.2642 12.025 25.2642C12.4493 25.2642 12.8553 25.3139 13.2431 25.4134C13.6342 25.5128 13.9805 25.6669 14.2821 25.8757C14.5871 26.0845 14.8274 26.353 15.003 26.6811C15.1787 27.0059 15.2665 27.3954 15.2665 27.8494V33H13.258V31.9411H13.1983C13.0757 32.1797 12.9116 32.3902 12.7061 32.5724C12.5007 32.7514 12.2537 32.8923 11.9654 32.995C11.677 33.0945 11.3439 33.1442 10.9661 33.1442ZM11.5726 31.6825C11.8842 31.6825 12.1593 31.6212 12.3979 31.4986C12.6365 31.3726 12.8238 31.2036 12.9597 30.9915C13.0956 30.7794 13.1635 30.5391 13.1635 30.2706V29.4602C13.0972 29.5033 13.0061 29.5431 12.8901 29.5795C12.7774 29.6127 12.6498 29.6442 12.5073 29.674C12.3648 29.7005 12.2222 29.7254 12.0797 29.7486C11.9372 29.7685 11.8079 29.7867 11.6919 29.8033C11.4434 29.8397 11.2263 29.8977 11.0407 29.9773C10.8551 30.0568 10.7109 30.1645 10.6081 30.3004C10.5054 30.433 10.454 30.5987 10.454 30.7976C10.454 31.0859 10.5584 31.3063 10.7672 31.4588C10.9793 31.608 11.2478 31.6825 11.5726 31.6825ZM16.9494 33V22.8182H19.0673V26.6463H19.1319C19.2247 26.4408 19.359 26.232 19.5346 26.0199C19.7136 25.8045 19.9456 25.6255 20.2306 25.483C20.519 25.3371 20.877 25.2642 21.3045 25.2642C21.8613 25.2642 22.3751 25.41 22.8457 25.7017C23.3163 25.9901 23.6925 26.4259 23.9743 27.0092C24.256 27.5893 24.3968 28.3168 24.3968 29.1918C24.3968 30.0436 24.2593 30.7628 23.9842 31.3494C23.7124 31.9328 23.3412 32.3752 22.8706 32.6768C22.4032 32.9751 21.8796 33.1243 21.2995 33.1243C20.8886 33.1243 20.5389 33.0563 20.2505 32.9205C19.9655 32.7846 19.7318 32.6139 19.5495 32.4084C19.3672 32.1996 19.228 31.9891 19.1319 31.777H19.0375V33H16.9494ZM19.0225 29.1818C19.0225 29.6359 19.0855 30.032 19.2115 30.37C19.3374 30.7081 19.5197 30.9716 19.7583 31.1605C19.997 31.3461 20.287 31.4389 20.6284 31.4389C20.9731 31.4389 21.2647 31.3445 21.5034 31.1555C21.742 30.9633 21.9226 30.6982 22.0453 30.3601C22.1712 30.0187 22.2342 29.6259 22.2342 29.1818C22.2342 28.741 22.1729 28.3532 22.0502 28.0185C21.9276 27.6837 21.747 27.4219 21.5083 27.233C21.2697 27.044 20.9764 26.9496 20.6284 26.9496C20.2837 26.9496 19.992 27.0407 19.7534 27.223C19.5181 27.4053 19.3374 27.6638 19.2115 27.9986C19.0855 28.3333 19.0225 28.7277 19.0225 29.1818Z" fill="url(#paint0_radial_4_10)"/>
<defs>
<radialGradient id="paint0_radial_4_10" cx="0" cy="0" r="1" gradientUnits="userSpaceOnUse" gradientTransform="translate(4.5 4.5) rotate(50.4923) scale(36.9391 58.0472)">
<stop stop-color="#EC0B33"/>
<stop offset="0.497876" stop-color="#ED5532"/>
<stop offset="1" stop-color="#FDB36D"/>
</radialGradient>
</defs>
</svg>
