<svg width="188" height="54" viewBox="0 0 188 54" fill="none" xmlns="http://www.w3.org/2000/svg">
<path d="M1.15909 36V27.2727H3.97585C4.59517 27.2727 5.11222 27.392 5.52699 27.6307C5.9446 27.8665 6.25852 28.1875 6.46875 28.5938C6.68182 29 6.78835 29.4574 6.78835 29.9659C6.78835 30.4744 6.68324 30.9332 6.47301 31.3423C6.26278 31.7486 5.95028 32.071 5.53551 32.3097C5.12074 32.5455 4.60511 32.6634 3.98864 32.6634H1.77273V31.9474H3.96733C4.42472 31.9474 4.80398 31.8622 5.10511 31.6918C5.40625 31.5185 5.63068 31.2827 5.77841 30.9844C5.92898 30.6861 6.00426 30.3466 6.00426 29.9659C6.00426 29.5852 5.92898 29.2457 5.77841 28.9474C5.63068 28.6491 5.40483 28.4148 5.10085 28.2443C4.79972 28.0739 4.41761 27.9886 3.95455 27.9886H1.95597V36H1.15909ZM8.50142 36V29.4545H9.23864V30.4602H9.29403C9.42472 30.1307 9.65199 29.8651 9.97585 29.6634C10.3026 29.4588 10.6719 29.3565 11.0838 29.3565C11.1463 29.3565 11.2159 29.358 11.2926 29.3608C11.3693 29.3636 11.4332 29.3665 11.4844 29.3693V30.1406C11.4503 30.1349 11.3906 30.1264 11.3054 30.1151C11.2202 30.1037 11.1278 30.098 11.0284 30.098C10.6875 30.098 10.3835 30.1705 10.1165 30.3153C9.85227 30.4574 9.64347 30.6548 9.49006 30.9077C9.33665 31.1605 9.25994 31.4489 9.25994 31.7727V36H8.50142ZM12.7873 36V29.4545H13.5501V36H12.7873ZM13.1751 28.3295C13.0188 28.3295 12.8853 28.277 12.7745 28.1719C12.6637 28.0639 12.6083 27.9347 12.6083 27.7841C12.6083 27.6335 12.6637 27.5057 12.7745 27.4006C12.8853 27.2926 13.0188 27.2386 13.1751 27.2386C13.3313 27.2386 13.4648 27.2926 13.5756 27.4006C13.6864 27.5057 13.7418 27.6335 13.7418 27.7841C13.7418 27.9347 13.6864 28.0639 13.5756 28.1719C13.4648 28.277 13.3313 28.3295 13.1751 28.3295ZM20.6229 29.4545L18.2322 36H17.4226L15.032 29.4545H15.8544L17.7976 34.9986H17.8572L19.8004 29.4545H20.6229ZM23.7358 36.1491C23.3409 36.1491 22.9801 36.0724 22.6534 35.919C22.3267 35.7628 22.0668 35.5384 21.8736 35.2457C21.6804 34.9503 21.5838 34.5923 21.5838 34.1719C21.5838 33.848 21.6449 33.5753 21.767 33.3537C21.8892 33.1321 22.0625 32.9503 22.2869 32.8082C22.5114 32.6662 22.777 32.554 23.0838 32.4716C23.3906 32.3892 23.7287 32.3253 24.098 32.2798C24.4645 32.2344 24.7741 32.1946 25.027 32.1605C25.2827 32.1264 25.4773 32.0724 25.6108 31.9986C25.7443 31.9247 25.8111 31.8054 25.8111 31.6406V31.4872C25.8111 31.0412 25.6776 30.6903 25.4105 30.4347C25.1463 30.1761 24.7656 30.0469 24.2685 30.0469C23.7969 30.0469 23.4119 30.1506 23.1136 30.358C22.8182 30.5653 22.6108 30.8097 22.4915 31.0909L21.7713 30.831C21.919 30.473 22.1236 30.1875 22.3849 29.9744C22.6463 29.7585 22.9389 29.6037 23.2628 29.5099C23.5866 29.4134 23.9148 29.3651 24.2472 29.3651C24.4972 29.3651 24.7571 29.3977 25.027 29.4631C25.2997 29.5284 25.5526 29.642 25.7855 29.804C26.0185 29.9631 26.2074 30.1861 26.3523 30.473C26.4972 30.7571 26.5696 31.1179 26.5696 31.5554V36H25.8111V34.9645H25.7642C25.6733 35.1577 25.5384 35.3452 25.3594 35.527C25.1804 35.7088 24.956 35.858 24.6861 35.9744C24.4162 36.0909 24.0994 36.1491 23.7358 36.1491ZM23.8381 35.4545C24.2415 35.4545 24.5909 35.3651 24.8864 35.1861C25.1818 35.0071 25.4091 34.7699 25.5682 34.4744C25.7301 34.1761 25.8111 33.848 25.8111 33.4901V32.544C25.7543 32.598 25.6591 32.6463 25.5256 32.6889C25.3949 32.7315 25.2429 32.7699 25.0696 32.804C24.8991 32.8352 24.7287 32.8622 24.5582 32.8849C24.3878 32.9077 24.2344 32.9276 24.098 32.9446C23.7287 32.9901 23.4134 33.0611 23.152 33.1577C22.8906 33.2543 22.6903 33.3878 22.5511 33.5582C22.4119 33.7259 22.3423 33.9418 22.3423 34.206C22.3423 34.6037 22.4844 34.9119 22.7685 35.1307C23.0526 35.3466 23.4091 35.4545 23.8381 35.4545ZM31.1442 36.1364C30.5589 36.1364 30.049 35.9901 29.6143 35.6974C29.1825 35.4048 28.8473 35.0043 28.6087 34.4957C28.37 33.9872 28.2507 33.4077 28.2507 32.7571C28.2507 32.1009 28.3714 31.517 28.6129 31.0057C28.8572 30.4943 29.1953 30.0937 29.6271 29.804C30.0589 29.5114 30.5604 29.3651 31.1314 29.3651C31.5689 29.3651 31.9652 29.4503 32.3203 29.6207C32.6754 29.7884 32.968 30.0256 33.1982 30.3324C33.4311 30.6364 33.5774 30.9915 33.6371 31.3977H32.87C32.7905 31.0284 32.5987 30.7131 32.2947 30.4517C31.9936 30.1875 31.6101 30.0554 31.1442 30.0554C30.7266 30.0554 30.3572 30.169 30.0362 30.3963C29.7152 30.6207 29.4638 30.9347 29.282 31.3381C29.103 31.7386 29.0135 32.2031 29.0135 32.7315C29.0135 33.2628 29.1016 33.733 29.2777 34.142C29.4538 34.5483 29.701 34.8665 30.0192 35.0966C30.3402 35.3267 30.7152 35.4418 31.1442 35.4418C31.4339 35.4418 31.6982 35.3878 31.9368 35.2798C32.1783 35.169 32.38 35.0128 32.5419 34.8111C32.7067 34.6094 32.8175 34.3693 32.8743 34.0909H33.6413C33.5845 34.4858 33.4439 34.8381 33.2195 35.1477C32.9979 35.4545 32.7095 35.696 32.3544 35.8722C32.0021 36.0483 31.5987 36.1364 31.1442 36.1364ZM35.7955 38.4545C35.6449 38.4545 35.5043 38.4403 35.3736 38.4119C35.2429 38.3835 35.1392 38.3523 35.0625 38.3182L35.267 37.6491C35.5256 37.7287 35.7557 37.7571 35.9574 37.7344C36.1591 37.7145 36.3381 37.6236 36.4943 37.4616C36.6506 37.3026 36.7898 37.0582 36.9119 36.7287L37.1506 36.0639L34.7429 29.4545H35.5653L37.5085 34.9986H37.5682L39.5114 29.4545H40.3338L37.5639 37.0355C37.4474 37.3509 37.304 37.6136 37.1335 37.8239C36.9631 38.0369 36.7656 38.1946 36.5412 38.2969C36.3196 38.402 36.071 38.4545 35.7955 38.4545ZM45.3505 31.9006V32.6165H41.7198V31.9006H45.3505ZM47.413 36V27.2727H52.4755V27.9886H48.2099V31.2741H52.207V31.9901H48.2099V35.2841H52.5607V36H47.413ZM55.1388 31.9091V36H54.3803V29.4545H55.1175V30.4815H55.1857C55.3391 30.1463 55.5778 29.8778 55.9016 29.6761C56.2283 29.4716 56.6317 29.3693 57.1119 29.3693C57.5522 29.3693 57.9386 29.4616 58.271 29.6463C58.6062 29.8281 58.8661 30.0966 59.0508 30.4517C59.2383 30.8068 59.332 31.2429 59.332 31.7599V36H58.5735V31.8068C58.5735 31.2699 58.4229 30.8452 58.1218 30.5327C57.8235 30.2202 57.4229 30.0639 56.9201 30.0639C56.5763 30.0639 56.271 30.1378 56.0039 30.2855C55.7369 30.4332 55.5252 30.6463 55.369 30.9247C55.2156 31.2003 55.1388 31.5284 55.1388 31.9091ZM63.1577 36.1491C62.7628 36.1491 62.402 36.0724 62.0753 35.919C61.7486 35.7628 61.4886 35.5384 61.2955 35.2457C61.1023 34.9503 61.0057 34.5923 61.0057 34.1719C61.0057 33.848 61.0668 33.5753 61.1889 33.3537C61.3111 33.1321 61.4844 32.9503 61.7088 32.8082C61.9332 32.6662 62.1989 32.554 62.5057 32.4716C62.8125 32.3892 63.1506 32.3253 63.5199 32.2798C63.8864 32.2344 64.196 32.1946 64.4489 32.1605C64.7045 32.1264 64.8991 32.0724 65.0327 31.9986C65.1662 31.9247 65.233 31.8054 65.233 31.6406V31.4872C65.233 31.0412 65.0994 30.6903 64.8324 30.4347C64.5682 30.1761 64.1875 30.0469 63.6903 30.0469C63.2188 30.0469 62.8338 30.1506 62.5355 30.358C62.2401 30.5653 62.0327 30.8097 61.9134 31.0909L61.1932 30.831C61.3409 30.473 61.5455 30.1875 61.8068 29.9744C62.0682 29.7585 62.3608 29.6037 62.6847 29.5099C63.0085 29.4134 63.3366 29.3651 63.669 29.3651C63.919 29.3651 64.179 29.3977 64.4489 29.4631C64.7216 29.5284 64.9744 29.642 65.2074 29.804C65.4403 29.9631 65.6293 30.1861 65.7741 30.473C65.919 30.7571 65.9915 31.1179 65.9915 31.5554V36H65.233V34.9645H65.1861C65.0952 35.1577 64.9602 35.3452 64.7812 35.527C64.6023 35.7088 64.3778 35.858 64.108 35.9744C63.8381 36.0909 63.5213 36.1491 63.1577 36.1491ZM63.2599 35.4545C63.6634 35.4545 64.0128 35.3651 64.3082 35.1861C64.6037 35.0071 64.831 34.7699 64.9901 34.4744C65.152 34.1761 65.233 33.848 65.233 33.4901V32.544C65.1761 32.598 65.081 32.6463 64.9474 32.6889C64.8168 32.7315 64.6648 32.7699 64.4915 32.804C64.321 32.8352 64.1506 32.8622 63.9801 32.8849C63.8097 32.9077 63.6562 32.9276 63.5199 32.9446C63.1506 32.9901 62.8352 33.0611 62.5739 33.1577C62.3125 33.2543 62.1122 33.3878 61.973 33.5582C61.8338 33.7259 61.7642 33.9418 61.7642 34.206C61.7642 34.6037 61.9062 34.9119 62.1903 35.1307C62.4744 35.3466 62.831 35.4545 63.2599 35.4545ZM68.1669 36V27.2727H68.9297V30.7031H68.9979C69.0831 30.5071 69.2053 30.3054 69.3643 30.098C69.5263 29.8906 69.7379 29.7173 69.9993 29.5781C70.2635 29.4361 70.5959 29.3651 70.9964 29.3651C71.5334 29.3651 72.005 29.5071 72.4112 29.7912C72.8175 30.0724 73.1342 30.4673 73.3615 30.9759C73.5888 31.4815 73.7024 32.071 73.7024 32.7443C73.7024 33.4205 73.5888 34.0128 73.3615 34.5213C73.1371 35.0298 72.8217 35.4261 72.4155 35.7102C72.0121 35.9943 71.5433 36.1364 71.0092 36.1364C70.6115 36.1364 70.2791 36.0653 70.0121 35.9233C69.7479 35.7812 69.5348 35.6065 69.3729 35.3991C69.2109 35.1889 69.0859 34.9844 68.9979 34.7855H68.9041V36H68.1669ZM68.9169 32.7315C68.9169 33.2599 68.995 33.7287 69.1513 34.1378C69.3104 34.544 69.5376 34.8636 69.8331 35.0966C70.1314 35.3267 70.4922 35.4418 70.9155 35.4418C71.3501 35.4418 71.718 35.3224 72.0192 35.0838C72.3203 34.8423 72.549 34.517 72.7053 34.108C72.8615 33.6989 72.9396 33.2401 72.9396 32.7315C72.9396 32.2287 72.8615 31.7756 72.7053 31.3722C72.5518 30.9687 72.3246 30.6491 72.0234 30.4134C71.7223 30.1747 71.353 30.0554 70.9155 30.0554C70.4893 30.0554 70.1271 30.1705 69.8288 30.4006C69.5334 30.6278 69.3075 30.9432 69.1513 31.3466C68.995 31.7472 68.9169 32.2088 68.9169 32.7315ZM76.1271 27.2727V36H75.3686V27.2727H76.1271ZM78.1428 36V29.4545H78.9055V36H78.1428ZM78.5305 28.3295C78.3743 28.3295 78.2408 28.277 78.13 28.1719C78.0192 28.0639 77.9638 27.9347 77.9638 27.7841C77.9638 27.6335 78.0192 27.5057 78.13 27.4006C78.2408 27.2926 78.3743 27.2386 78.5305 27.2386C78.6868 27.2386 78.8203 27.2926 78.9311 27.4006C79.0419 27.5057 79.0973 27.6335 79.0973 27.7841C79.0973 27.9347 79.0419 28.0639 78.9311 28.1719C78.8203 28.277 78.6868 28.3295 78.5305 28.3295ZM81.6701 31.9091V36H80.9116V29.4545H81.6488V30.4815H81.717C81.8704 30.1463 82.109 29.8778 82.4329 29.6761C82.7596 29.4716 83.163 29.3693 83.6431 29.3693C84.0835 29.3693 84.4698 29.4616 84.8022 29.6463C85.1374 29.8281 85.3974 30.0966 85.582 30.4517C85.7695 30.8068 85.8633 31.2429 85.8633 31.7599V36H85.1048V31.8068C85.1048 31.2699 84.9542 30.8452 84.6531 30.5327C84.3548 30.2202 83.9542 30.0639 83.4513 30.0639C83.1076 30.0639 82.8022 30.1378 82.5352 30.2855C82.2681 30.4332 82.0565 30.6463 81.9002 30.9247C81.7468 31.2003 81.6701 31.5284 81.6701 31.9091ZM90.358 38.5909C89.9119 38.5909 89.5213 38.5327 89.1861 38.4162C88.8509 38.3026 88.5682 38.1463 88.3381 37.9474C88.108 37.7486 87.929 37.5256 87.8011 37.2784L88.4233 36.8693C88.517 37.0341 88.642 37.196 88.7983 37.3551C88.9574 37.5142 89.1634 37.6463 89.4162 37.7514C89.6719 37.8565 89.9858 37.9091 90.358 37.9091C90.9375 37.9091 91.4048 37.7642 91.7599 37.4744C92.1179 37.1847 92.2969 36.7344 92.2969 36.1236V34.6491H92.2287C92.1406 34.848 92.0142 35.0469 91.8494 35.2457C91.6847 35.4418 91.4688 35.6051 91.2017 35.7358C90.9375 35.8665 90.6094 35.9318 90.2173 35.9318C89.6946 35.9318 89.2301 35.8026 88.8239 35.544C88.4205 35.2855 88.1023 34.9162 87.8693 34.4361C87.6392 33.9531 87.5241 33.3778 87.5241 32.7102C87.5241 32.0483 87.6364 31.4659 87.8608 30.9631C88.0881 30.4602 88.4048 30.0682 88.8111 29.7869C89.2173 29.5057 89.6903 29.3651 90.2301 29.3651C90.6307 29.3651 90.9631 29.4361 91.2273 29.5781C91.4915 29.7173 91.7031 29.8906 91.8622 30.098C92.0241 30.3054 92.1506 30.5071 92.2415 30.7031H92.3182V29.4545H93.0597V36.1705C93.0597 36.7244 92.9418 37.1804 92.706 37.5384C92.4702 37.8963 92.1491 38.1605 91.7429 38.331C91.3366 38.5043 90.875 38.5909 90.358 38.5909ZM90.3068 35.2372C90.7273 35.2372 91.0866 35.1364 91.3849 34.9347C91.6832 34.7301 91.9119 34.4375 92.071 34.0568C92.2301 33.6761 92.3097 33.223 92.3097 32.6974C92.3097 32.1861 92.2315 31.733 92.0753 31.3381C91.919 30.9403 91.6918 30.6278 91.3935 30.4006C91.098 30.1705 90.7358 30.0554 90.3068 30.0554C89.8693 30.0554 89.5 30.1733 89.1989 30.4091C88.8977 30.6449 88.6705 30.9631 88.517 31.3636C88.3636 31.7614 88.2869 32.206 88.2869 32.6974C88.2869 33.1974 88.3651 33.6392 88.5213 34.0227C88.6776 34.4034 88.9063 34.7017 89.2074 34.9176C89.5085 35.1307 89.875 35.2372 90.3068 35.2372ZM98.6133 36H97.7781L100.953 27.2727H101.805L104.98 36H104.145L101.409 28.3082H101.349L98.6133 36ZM99.2141 32.6548H103.544V33.3707H99.2141V32.6548ZM107.272 27.2727V36H106.475V27.2727H107.272ZM115.145 36.1193C114.608 36.1193 114.14 36.0156 113.739 35.8082C113.338 35.598 113.027 35.3125 112.806 34.9517C112.584 34.5909 112.473 34.1832 112.473 33.7287C112.473 33.3991 112.54 33.1023 112.674 32.8381C112.81 32.571 113.006 32.3182 113.262 32.0795C113.517 31.8381 113.827 31.5881 114.191 31.3295L115.456 30.3878C115.757 30.1719 115.986 29.9602 116.142 29.7528C116.301 29.5426 116.381 29.2855 116.381 28.9815C116.381 28.6889 116.27 28.4276 116.049 28.1974C115.83 27.9645 115.546 27.848 115.196 27.848C114.952 27.848 114.733 27.9091 114.54 28.0312C114.35 28.1534 114.198 28.3125 114.084 28.5085C113.973 28.7017 113.918 28.9048 113.918 29.1179C113.918 29.3168 113.969 29.517 114.071 29.7188C114.174 29.9176 114.311 30.1278 114.485 30.3494C114.658 30.5682 114.851 30.8097 115.064 31.0739L119.053 36H118.132L114.655 31.7344C114.363 31.3764 114.103 31.0568 113.875 30.7756C113.648 30.4915 113.469 30.2188 113.338 29.9574C113.208 29.6932 113.142 29.4105 113.142 29.1094C113.142 28.7372 113.229 28.4062 113.402 28.1165C113.576 27.8239 113.814 27.5937 114.118 27.4261C114.425 27.2585 114.776 27.1747 115.171 27.1747C115.574 27.1747 115.924 27.2571 116.219 27.4219C116.517 27.5866 116.748 27.8054 116.909 28.0781C117.074 28.3509 117.157 28.652 117.157 28.9815C117.157 29.3764 117.054 29.7259 116.85 30.0298C116.648 30.3338 116.354 30.6321 115.968 30.9247L114.382 32.1094C113.948 32.4361 113.65 32.7386 113.488 33.017C113.326 33.2955 113.245 33.5327 113.245 33.7287C113.245 34.0355 113.324 34.3182 113.483 34.5767C113.642 34.8352 113.863 35.0426 114.144 35.1989C114.428 35.3551 114.753 35.4347 115.12 35.4375C115.483 35.4347 115.826 35.3622 116.147 35.2202C116.468 35.0753 116.755 34.8693 117.007 34.6023C117.263 34.3352 117.468 34.0156 117.621 33.6435C117.777 33.2713 117.868 32.8565 117.894 32.3991L118.631 32.4077C118.62 32.8764 118.556 33.2741 118.439 33.6009C118.326 33.9247 118.195 34.1918 118.047 34.402C117.9 34.6122 117.77 34.7812 117.659 34.9091C117.628 34.9517 117.597 34.9943 117.566 35.0369C117.534 35.0795 117.502 35.1222 117.468 35.1648C117.184 35.4773 116.83 35.7145 116.407 35.8764C115.986 36.0384 115.566 36.1193 115.145 36.1193ZM7.99432 45H7.19318C7.13352 44.7017 7.02557 44.4261 6.86932 44.1733C6.71591 43.9176 6.52273 43.6946 6.28977 43.5043C6.05682 43.3139 5.79261 43.1662 5.49716 43.0611C5.2017 42.956 4.8821 42.9034 4.53835 42.9034C3.98722 42.9034 3.48438 43.0469 3.02983 43.3338C2.57813 43.6207 2.21591 44.0426 1.94318 44.5994C1.6733 45.1534 1.53835 45.8324 1.53835 46.6364C1.53835 47.446 1.6733 48.1278 1.94318 48.6818C2.21591 49.2358 2.57813 49.6562 3.02983 49.9432C3.48438 50.2273 3.98722 50.3693 4.53835 50.3693C4.8821 50.3693 5.2017 50.3168 5.49716 50.2116C5.79261 50.1065 6.05682 49.9602 6.28977 49.7727C6.52273 49.5824 6.71591 49.3594 6.86932 49.1037C7.02557 48.848 7.13352 48.571 7.19318 48.2727H7.99432C7.9233 48.6733 7.78977 49.0469 7.59375 49.3935C7.40057 49.7372 7.15341 50.0384 6.85227 50.2969C6.55398 50.5554 6.21023 50.7571 5.82102 50.902C5.43182 51.0469 5.00426 51.1193 4.53835 51.1193C3.8054 51.1193 3.15483 50.9361 2.58665 50.5696C2.01847 50.2003 1.57244 49.6804 1.24858 49.0099C0.927557 48.3395 0.767045 47.5483 0.767045 46.6364C0.767045 45.7244 0.927557 44.9332 1.24858 44.2628C1.57244 43.5923 2.01847 43.0739 2.58665 42.7074C3.15483 42.3381 3.8054 42.1534 4.53835 42.1534C5.00426 42.1534 5.43182 42.2259 5.82102 42.3707C6.21023 42.5128 6.55398 42.7145 6.85227 42.9759C7.15341 43.2344 7.40057 43.5355 7.59375 43.8793C7.78977 44.223 7.9233 44.5966 7.99432 45ZM12.2525 51.1364C11.6871 51.1364 11.1871 50.9929 10.7525 50.706C10.3207 50.419 9.9826 50.0227 9.73828 49.517C9.49396 49.0085 9.3718 48.4219 9.3718 47.7571C9.3718 47.0866 9.49396 46.4972 9.73828 45.9886C9.9826 45.4773 10.3207 45.0795 10.7525 44.7955C11.1871 44.5085 11.6871 44.3651 12.2525 44.3651C12.8178 44.3651 13.3164 44.5085 13.7482 44.7955C14.18 45.0824 14.5181 45.4801 14.7624 45.9886C15.0096 46.4972 15.1332 47.0866 15.1332 47.7571C15.1332 48.4219 15.011 49.0085 14.7667 49.517C14.5224 50.0227 14.1829 50.419 13.7482 50.706C13.3164 50.9929 12.8178 51.1364 12.2525 51.1364ZM12.2525 50.4418C12.707 50.4418 13.092 50.3196 13.4073 50.0753C13.7227 49.831 13.9613 49.5057 14.1232 49.0994C14.288 48.6932 14.3704 48.2457 14.3704 47.7571C14.3704 47.2685 14.288 46.8196 14.1232 46.4105C13.9613 46.0014 13.7227 45.6733 13.4073 45.4261C13.092 45.179 12.707 45.0554 12.2525 45.0554C11.8008 45.0554 11.4158 45.179 11.0977 45.4261C10.7823 45.6733 10.5423 46.0014 10.3775 46.4105C10.2156 46.8196 10.1346 47.2685 10.1346 47.7571C10.1346 48.2457 10.2156 48.6932 10.3775 49.0994C10.5423 49.5057 10.7823 49.831 11.0977 50.0753C11.413 50.3196 11.7979 50.4418 12.2525 50.4418ZM16.7983 51V44.4545H17.5355V45.4602H17.6037C17.7344 45.1222 17.9517 44.8565 18.2557 44.6634C18.5625 44.4673 18.9304 44.3693 19.3594 44.3693C19.8111 44.3693 20.1818 44.4759 20.4716 44.6889C20.7642 44.8991 20.983 45.1889 21.1278 45.5582H21.1832C21.331 45.1946 21.571 44.9062 21.9034 44.6932C22.2386 44.4773 22.6449 44.3693 23.1222 44.3693C23.7301 44.3693 24.2102 44.5611 24.5625 44.9446C24.9148 45.3253 25.0909 45.8821 25.0909 46.6151V51H24.3324V46.6151C24.3324 46.098 24.2003 45.7102 23.9361 45.4517C23.6719 45.1932 23.3239 45.0639 22.892 45.0639C22.392 45.0639 22.0071 45.2173 21.7372 45.5241C21.4673 45.831 21.3324 46.2202 21.3324 46.6918V51H20.5568V46.5469C20.5568 46.1037 20.4332 45.7457 20.1861 45.473C19.9389 45.2003 19.5909 45.0639 19.142 45.0639C18.8409 45.0639 18.5696 45.1378 18.3281 45.2855C18.0895 45.4332 17.9006 45.6392 17.7614 45.9034C17.625 46.1648 17.5568 46.4659 17.5568 46.8068V51H16.7983ZM27.0991 53.4545V44.4545H27.8363V45.7031H27.9258C28.0167 45.5071 28.1417 45.3068 28.3008 45.1023C28.4599 44.8949 28.6701 44.7202 28.9315 44.5781C29.1957 44.4361 29.5281 44.3651 29.9286 44.3651C30.4684 44.3651 30.94 44.5071 31.3434 44.7912C31.7496 45.0724 32.065 45.4673 32.2894 45.9759C32.5167 46.4815 32.6303 47.071 32.6303 47.7443C32.6303 48.4205 32.5167 49.0128 32.2894 49.5213C32.065 50.0298 31.7496 50.4261 31.3434 50.7102C30.94 50.9943 30.4712 51.1364 29.9371 51.1364C29.5423 51.1364 29.2113 51.0653 28.9442 50.9233C28.68 50.7812 28.4656 50.6065 28.3008 50.3991C28.1388 50.1889 28.0138 49.9844 27.9258 49.7855H27.8576V53.4545H27.0991ZM27.8491 47.7315C27.8491 48.2599 27.9272 48.7287 28.0835 49.1378C28.2425 49.544 28.4698 49.8636 28.7653 50.0966C29.0636 50.3267 29.4244 50.4418 29.8477 50.4418C30.2823 50.4418 30.6488 50.3224 30.9471 50.0838C31.2482 49.8423 31.4769 49.517 31.6332 49.108C31.7923 48.6989 31.8718 48.2401 31.8718 47.7315C31.8718 47.2287 31.7937 46.7756 31.6374 46.3722C31.484 45.9687 31.2567 45.6491 30.9556 45.4134C30.6545 45.1747 30.2852 45.0554 29.8477 45.0554C29.4215 45.0554 29.0593 45.1705 28.761 45.4006C28.4627 45.6278 28.2354 45.9432 28.0792 46.3466C27.9258 46.7472 27.8491 47.2088 27.8491 47.7315ZM38.4535 48.4986V44.4545H39.212V51H38.4535V49.9134H38.3938C38.2404 50.2486 37.9975 50.5284 37.6651 50.7528C37.3327 50.9744 36.9265 51.0852 36.4464 51.0852C36.0288 51.0852 35.658 50.9943 35.3342 50.8125C35.0103 50.6278 34.756 50.358 34.5714 50.0028C34.3867 49.6477 34.2944 49.2116 34.2944 48.6946V44.4545H35.0529V48.6477C35.0529 49.1591 35.2035 49.571 35.5046 49.8835C35.8058 50.1932 36.1921 50.348 36.6637 50.348C36.9592 50.348 37.2433 50.277 37.516 50.1349C37.7887 49.9929 38.0131 49.7855 38.1893 49.5128C38.3654 49.2372 38.4535 48.8991 38.4535 48.4986ZM43.7983 44.4545V45.1151H40.6747V44.4545H43.7983ZM41.6506 42.8864H42.4134V49.2912C42.4134 49.5639 42.4602 49.7784 42.554 49.9347C42.6477 50.0881 42.7699 50.1974 42.9205 50.2628C43.071 50.3253 43.2315 50.3565 43.402 50.3565C43.5014 50.3565 43.5866 50.3509 43.6577 50.3395C43.7287 50.3253 43.7912 50.3111 43.8452 50.2969L44.0071 50.983C43.9332 51.0114 43.8423 51.0369 43.7344 51.0597C43.6264 51.0852 43.4929 51.098 43.3338 51.098C43.0554 51.098 42.7869 51.0369 42.5284 50.9148C42.2727 50.7926 42.0625 50.6108 41.8977 50.3693C41.733 50.1278 41.6506 49.8281 41.6506 49.4702V42.8864ZM48.0969 51.1364C47.4862 51.1364 46.9577 50.9943 46.5117 50.7102C46.0657 50.4233 45.7205 50.027 45.4762 49.5213C45.2347 49.0128 45.114 48.4276 45.114 47.7656C45.114 47.1065 45.2347 46.5213 45.4762 46.0099C45.7205 45.4957 46.0572 45.0937 46.4862 44.804C46.918 44.5114 47.4165 44.3651 47.9819 44.3651C48.337 44.3651 48.6793 44.4304 49.0089 44.5611C49.3384 44.6889 49.6339 44.8864 49.8952 45.1534C50.1594 45.4176 50.3683 45.7514 50.5217 46.1548C50.6751 46.5554 50.7518 47.0298 50.7518 47.5781V47.9531H45.6381V47.2841H49.9762C49.9762 46.8636 49.891 46.4858 49.7205 46.1506C49.5529 45.8125 49.3185 45.5455 49.0174 45.3494C48.7191 45.1534 48.3739 45.0554 47.9819 45.0554C47.5671 45.0554 47.2021 45.1662 46.8867 45.3878C46.5714 45.6094 46.3242 45.902 46.1452 46.2656C45.9691 46.6293 45.8796 47.027 45.8768 47.4588V47.8594C45.8768 48.3793 45.9663 48.8338 46.1452 49.223C46.3271 49.6094 46.5842 49.9091 46.9165 50.1222C47.2489 50.3352 47.6424 50.4418 48.0969 50.4418C48.4066 50.4418 48.6779 50.3935 48.9109 50.2969C49.1467 50.2003 49.3441 50.071 49.5032 49.9091C49.6651 49.7443 49.7873 49.5639 49.8697 49.3679L50.5898 49.6023C50.4904 49.8778 50.3271 50.1321 50.0998 50.3651C49.8754 50.598 49.5941 50.7855 49.256 50.9276C48.9208 51.0668 48.5344 51.1364 48.0969 51.1364ZM52.4233 51V44.4545H53.1605V45.4602H53.2159C53.3466 45.1307 53.5739 44.8651 53.8977 44.6634C54.2244 44.4588 54.5938 44.3565 55.0057 44.3565C55.0682 44.3565 55.1378 44.358 55.2145 44.3608C55.2912 44.3636 55.3551 44.3665 55.4062 44.3693V45.1406C55.3722 45.1349 55.3125 45.1264 55.2273 45.1151C55.142 45.1037 55.0497 45.098 54.9503 45.098C54.6094 45.098 54.3054 45.1705 54.0384 45.3153C53.7741 45.4574 53.5653 45.6548 53.4119 45.9077C53.2585 46.1605 53.1818 46.4489 53.1818 46.7727V51H52.4233ZM59.7528 46.9006V47.6165H56.1222V46.9006H59.7528ZM61.8153 51V42.2727H62.6122V46.2741H67.5639V42.2727H68.3608V51H67.5639V46.9901H62.6122V51H61.8153ZM74.6761 48.4986V44.4545H75.4347V51H74.6761V49.9134H74.6165C74.4631 50.2486 74.2202 50.5284 73.8878 50.7528C73.5554 50.9744 73.1491 51.0852 72.669 51.0852C72.2514 51.0852 71.8807 50.9943 71.5568 50.8125C71.233 50.6278 70.9787 50.358 70.794 50.0028C70.6094 49.6477 70.517 49.2116 70.517 48.6946V44.4545H71.2756V48.6477C71.2756 49.1591 71.4261 49.571 71.7273 49.8835C72.0284 50.1932 72.4148 50.348 72.8864 50.348C73.1818 50.348 73.4659 50.277 73.7386 50.1349C74.0114 49.9929 74.2358 49.7855 74.4119 49.5128C74.5881 49.2372 74.6761 48.8991 74.6761 48.4986ZM77.4428 51V44.4545H78.18V45.4602H78.2482C78.3789 45.1222 78.5962 44.8565 78.9002 44.6634C79.207 44.4673 79.5749 44.3693 80.0039 44.3693C80.4556 44.3693 80.8263 44.4759 81.1161 44.6889C81.4087 44.8991 81.6275 45.1889 81.7724 45.5582H81.8278C81.9755 45.1946 82.2156 44.9062 82.5479 44.6932C82.8832 44.4773 83.2894 44.3693 83.7667 44.3693C84.3746 44.3693 84.8548 44.5611 85.207 44.9446C85.5593 45.3253 85.7354 45.8821 85.7354 46.6151V51H84.9769V46.6151C84.9769 46.098 84.8448 45.7102 84.5806 45.4517C84.3164 45.1932 83.9684 45.0639 83.5366 45.0639C83.0366 45.0639 82.6516 45.2173 82.3817 45.5241C82.1119 45.831 81.9769 46.2202 81.9769 46.6918V51H81.2013V46.5469C81.2013 46.1037 81.0778 45.7457 80.8306 45.473C80.5835 45.2003 80.2354 45.0639 79.7866 45.0639C79.4854 45.0639 79.2141 45.1378 78.9727 45.2855C78.734 45.4332 78.5451 45.6392 78.4059 45.9034C78.2695 46.1648 78.2013 46.4659 78.2013 46.8068V51H77.4428ZM89.5717 51.1491C89.1768 51.1491 88.8161 51.0724 88.4893 50.919C88.1626 50.7628 87.9027 50.5384 87.7095 50.2457C87.5163 49.9503 87.4197 49.5923 87.4197 49.1719C87.4197 48.848 87.4808 48.5753 87.603 48.3537C87.7251 48.1321 87.8984 47.9503 88.1229 47.8082C88.3473 47.6662 88.6129 47.554 88.9197 47.4716C89.2266 47.3892 89.5646 47.3253 89.9339 47.2798C90.3004 47.2344 90.6101 47.1946 90.8629 47.1605C91.1186 47.1264 91.3132 47.0724 91.4467 46.9986C91.5803 46.9247 91.647 46.8054 91.647 46.6406V46.4872C91.647 46.0412 91.5135 45.6903 91.2464 45.4347C90.9822 45.1761 90.6016 45.0469 90.1044 45.0469C89.6328 45.0469 89.2479 45.1506 88.9496 45.358C88.6541 45.5653 88.4467 45.8097 88.3274 46.0909L87.6072 45.831C87.755 45.473 87.9595 45.1875 88.2209 44.9744C88.4822 44.7585 88.7749 44.6037 89.0987 44.5099C89.4226 44.4134 89.7507 44.3651 90.0831 44.3651C90.3331 44.3651 90.593 44.3977 90.8629 44.4631C91.1357 44.5284 91.3885 44.642 91.6214 44.804C91.8544 44.9631 92.0433 45.1861 92.1882 45.473C92.3331 45.7571 92.4055 46.1179 92.4055 46.5554V51H91.647V49.9645H91.6001C91.5092 50.1577 91.3743 50.3452 91.1953 50.527C91.0163 50.7088 90.7919 50.858 90.522 50.9744C90.2521 51.0909 89.9354 51.1491 89.5717 51.1491ZM89.674 50.4545C90.0774 50.4545 90.4268 50.3651 90.7223 50.1861C91.0178 50.0071 91.245 49.7699 91.4041 49.4744C91.5661 49.1761 91.647 48.848 91.647 48.4901V47.544C91.5902 47.598 91.495 47.6463 91.3615 47.6889C91.2308 47.7315 91.0788 47.7699 90.9055 47.804C90.7351 47.8352 90.5646 47.8622 90.3942 47.8849C90.2237 47.9077 90.0703 47.9276 89.9339 47.9446C89.5646 47.9901 89.2493 48.0611 88.9879 48.1577C88.7266 48.2543 88.5263 48.3878 88.3871 48.5582C88.2479 48.7259 88.1783 48.9418 88.1783 49.206C88.1783 49.6037 88.3203 49.9119 88.6044 50.1307C88.8885 50.3466 89.245 50.4545 89.674 50.4545ZM95.1818 46.9091V51H94.4233V44.4545H95.1605V45.4815H95.2287C95.3821 45.1463 95.6207 44.8778 95.9446 44.6761C96.2713 44.4716 96.6747 44.3693 97.1548 44.3693C97.5952 44.3693 97.9815 44.4616 98.3139 44.6463C98.6491 44.8281 98.9091 45.0966 99.0938 45.4517C99.2812 45.8068 99.375 46.2429 99.375 46.7599V51H98.6165V46.8068C98.6165 46.2699 98.4659 45.8452 98.1648 45.5327C97.8665 45.2202 97.4659 45.0639 96.9631 45.0639C96.6193 45.0639 96.3139 45.1378 96.0469 45.2855C95.7798 45.4332 95.5682 45.6463 95.4119 45.9247C95.2585 46.2003 95.1818 46.5284 95.1818 46.9091ZM105.702 42.2727V51H104.905V42.2727H105.702ZM108.623 46.9091V51H107.865V44.4545H108.602V45.4815H108.67C108.824 45.1463 109.062 44.8778 109.386 44.6761C109.713 44.4716 110.116 44.3693 110.596 44.3693C111.037 44.3693 111.423 44.4616 111.755 44.6463C112.091 44.8281 112.35 45.0966 112.535 45.4517C112.723 45.8068 112.816 46.2429 112.816 46.7599V51H112.058V46.8068C112.058 46.2699 111.907 45.8452 111.606 45.5327C111.308 45.2202 110.907 45.0639 110.404 45.0639C110.061 45.0639 109.755 45.1378 109.488 45.2855C109.221 45.4332 109.01 45.6463 108.853 45.9247C108.7 46.2003 108.623 46.5284 108.623 46.9091ZM117.392 44.4545V45.1151H114.268V44.4545H117.392ZM115.244 42.8864H116.007V49.2912C116.007 49.5639 116.054 49.7784 116.148 49.9347C116.241 50.0881 116.364 50.1974 116.514 50.2628C116.665 50.3253 116.825 50.3565 116.996 50.3565C117.095 50.3565 117.18 50.3509 117.251 50.3395C117.322 50.3253 117.385 50.3111 117.439 50.2969L117.601 50.983C117.527 51.0114 117.436 51.0369 117.328 51.0597C117.22 51.0852 117.087 51.098 116.928 51.098C116.649 51.098 116.381 51.0369 116.122 50.9148C115.866 50.7926 115.656 50.6108 115.491 50.3693C115.327 50.1278 115.244 49.8281 115.244 49.4702V42.8864ZM121.691 51.1364C121.08 51.1364 120.551 50.9943 120.105 50.7102C119.659 50.4233 119.314 50.027 119.07 49.5213C118.828 49.0128 118.708 48.4276 118.708 47.7656C118.708 47.1065 118.828 46.5213 119.07 46.0099C119.314 45.4957 119.651 45.0937 120.08 44.804C120.512 44.5114 121.01 44.3651 121.576 44.3651C121.931 44.3651 122.273 44.4304 122.603 44.5611C122.932 44.6889 123.228 44.8864 123.489 45.1534C123.753 45.4176 123.962 45.7514 124.115 46.1548C124.269 46.5554 124.346 47.0298 124.346 47.5781V47.9531H119.232V47.2841H123.57C123.57 46.8636 123.485 46.4858 123.314 46.1506C123.147 45.8125 122.912 45.5455 122.611 45.3494C122.313 45.1534 121.968 45.0554 121.576 45.0554C121.161 45.0554 120.796 45.1662 120.48 45.3878C120.165 45.6094 119.918 45.902 119.739 46.2656C119.563 46.6293 119.473 47.027 119.471 47.4588V47.8594C119.471 48.3793 119.56 48.8338 119.739 49.223C119.921 49.6094 120.178 49.9091 120.51 50.1222C120.843 50.3352 121.236 50.4418 121.691 50.4418C122 50.4418 122.272 50.3935 122.505 50.2969C122.74 50.2003 122.938 50.071 123.097 49.9091C123.259 49.7443 123.381 49.5639 123.463 49.3679L124.184 49.6023C124.084 49.8778 123.921 50.1321 123.694 50.3651C123.469 50.598 123.188 50.7855 122.85 50.9276C122.515 51.0668 122.128 51.1364 121.691 51.1364ZM126.017 51V44.4545H126.754V45.4602H126.81C126.94 45.1307 127.168 44.8651 127.491 44.6634C127.818 44.4588 128.188 44.3565 128.599 44.3565C128.662 44.3565 128.732 44.358 128.808 44.3608C128.885 44.3636 128.949 44.3665 129 44.3693V45.1406C128.966 45.1349 128.906 45.1264 128.821 45.1151C128.736 45.1037 128.643 45.098 128.544 45.098C128.203 45.098 127.899 45.1705 127.632 45.3153C127.368 45.4574 127.159 45.6548 127.006 45.9077C126.852 46.1605 126.776 46.4489 126.776 46.7727V51H126.017ZM132.123 51.1491C131.728 51.1491 131.367 51.0724 131.04 50.919C130.713 50.7628 130.453 50.5384 130.26 50.2457C130.067 49.9503 129.971 49.5923 129.971 49.1719C129.971 48.848 130.032 48.5753 130.154 48.3537C130.276 48.1321 130.449 47.9503 130.674 47.8082C130.898 47.6662 131.164 47.554 131.471 47.4716C131.777 47.3892 132.115 47.3253 132.485 47.2798C132.851 47.2344 133.161 47.1946 133.414 47.1605C133.669 47.1264 133.864 47.0724 133.998 46.9986C134.131 46.9247 134.198 46.8054 134.198 46.6406V46.4872C134.198 46.0412 134.064 45.6903 133.797 45.4347C133.533 45.1761 133.152 45.0469 132.655 45.0469C132.184 45.0469 131.799 45.1506 131.5 45.358C131.205 45.5653 130.998 45.8097 130.878 46.0909L130.158 45.831C130.306 45.473 130.51 45.1875 130.772 44.9744C131.033 44.7585 131.326 44.6037 131.65 44.5099C131.973 44.4134 132.301 44.3651 132.634 44.3651C132.884 44.3651 133.144 44.3977 133.414 44.4631C133.686 44.5284 133.939 44.642 134.172 44.804C134.405 44.9631 134.594 45.1861 134.739 45.473C134.884 45.7571 134.956 46.1179 134.956 46.5554V51H134.198V49.9645H134.151C134.06 50.1577 133.925 50.3452 133.746 50.527C133.567 50.7088 133.343 50.858 133.073 50.9744C132.803 51.0909 132.486 51.1491 132.123 51.1491ZM132.225 50.4545C132.628 50.4545 132.978 50.3651 133.273 50.1861C133.569 50.0071 133.796 49.7699 133.955 49.4744C134.117 49.1761 134.198 48.848 134.198 48.4901V47.544C134.141 47.598 134.046 47.6463 133.912 47.6889C133.782 47.7315 133.63 47.7699 133.456 47.804C133.286 47.8352 133.115 47.8622 132.945 47.8849C132.775 47.9077 132.621 47.9276 132.485 47.9446C132.115 47.9901 131.8 48.0611 131.539 48.1577C131.277 48.2543 131.077 48.3878 130.938 48.5582C130.799 48.7259 130.729 48.9418 130.729 49.206C130.729 49.6037 130.871 49.9119 131.155 50.1307C131.439 50.3466 131.796 50.4545 132.225 50.4545ZM139.531 51.1364C138.946 51.1364 138.436 50.9901 138.001 50.6974C137.569 50.4048 137.234 50.0043 136.995 49.4957C136.757 48.9872 136.637 48.4077 136.637 47.7571C136.637 47.1009 136.758 46.517 137 46.0057C137.244 45.4943 137.582 45.0937 138.014 44.804C138.446 44.5114 138.947 44.3651 139.518 44.3651C139.956 44.3651 140.352 44.4503 140.707 44.6207C141.062 44.7884 141.355 45.0256 141.585 45.3324C141.818 45.6364 141.964 45.9915 142.024 46.3977H141.257C141.177 46.0284 140.985 45.7131 140.681 45.4517C140.38 45.1875 139.997 45.0554 139.531 45.0554C139.113 45.0554 138.744 45.169 138.423 45.3963C138.102 45.6207 137.85 45.9347 137.669 46.3381C137.49 46.7386 137.4 47.2031 137.4 47.7315C137.4 48.2628 137.488 48.733 137.664 49.142C137.841 49.5483 138.088 49.8665 138.406 50.0966C138.727 50.3267 139.102 50.4418 139.531 50.4418C139.821 50.4418 140.085 50.3878 140.324 50.2798C140.565 50.169 140.767 50.0128 140.929 49.8111C141.093 49.6094 141.204 49.3693 141.261 49.0909H142.028C141.971 49.4858 141.831 49.8381 141.606 50.1477C141.385 50.4545 141.096 50.696 140.741 50.8722C140.389 51.0483 139.985 51.1364 139.531 51.1364ZM146.232 44.4545V45.1151H143.108V44.4545H146.232ZM144.084 42.8864H144.847V49.2912C144.847 49.5639 144.894 49.7784 144.988 49.9347C145.081 50.0881 145.203 50.1974 145.354 50.2628C145.505 50.3253 145.665 50.3565 145.836 50.3565C145.935 50.3565 146.02 50.3509 146.091 50.3395C146.162 50.3253 146.225 50.3111 146.279 50.2969L146.441 50.983C146.367 51.0114 146.276 51.0369 146.168 51.0597C146.06 51.0852 145.926 51.098 145.767 51.098C145.489 51.098 145.221 51.0369 144.962 50.9148C144.706 50.7926 144.496 50.6108 144.331 50.3693C144.167 50.1278 144.084 49.8281 144.084 49.4702V42.8864ZM147.963 51V44.4545H148.726V51H147.963ZM148.351 43.3295C148.195 43.3295 148.061 43.277 147.95 43.1719C147.839 43.0639 147.784 42.9347 147.784 42.7841C147.784 42.6335 147.839 42.5057 147.95 42.4006C148.061 42.2926 148.195 42.2386 148.351 42.2386C148.507 42.2386 148.641 42.2926 148.751 42.4006C148.862 42.5057 148.918 42.6335 148.918 42.7841C148.918 42.9347 148.862 43.0639 148.751 43.1719C148.641 43.277 148.507 43.3295 148.351 43.3295ZM153.276 51.1364C152.711 51.1364 152.211 50.9929 151.776 50.706C151.344 50.419 151.006 50.0227 150.762 49.517C150.517 49.0085 150.395 48.4219 150.395 47.7571C150.395 47.0866 150.517 46.4972 150.762 45.9886C151.006 45.4773 151.344 45.0795 151.776 44.7955C152.211 44.5085 152.711 44.3651 153.276 44.3651C153.841 44.3651 154.34 44.5085 154.772 44.7955C155.203 45.0824 155.542 45.4801 155.786 45.9886C156.033 46.4972 156.157 47.0866 156.157 47.7571C156.157 48.4219 156.034 49.0085 155.79 49.517C155.546 50.0227 155.206 50.419 154.772 50.706C154.34 50.9929 153.841 51.1364 153.276 51.1364ZM153.276 50.4418C153.73 50.4418 154.115 50.3196 154.431 50.0753C154.746 49.831 154.985 49.5057 155.147 49.0994C155.311 48.6932 155.394 48.2457 155.394 47.7571C155.394 47.2685 155.311 46.8196 155.147 46.4105C154.985 46.0014 154.746 45.6733 154.431 45.4261C154.115 45.179 153.73 45.0554 153.276 45.0554C152.824 45.0554 152.439 45.179 152.121 45.4261C151.806 45.6733 151.566 46.0014 151.401 46.4105C151.239 46.8196 151.158 47.2685 151.158 47.7571C151.158 48.2457 151.239 48.6932 151.401 49.0994C151.566 49.5057 151.806 49.831 152.121 50.0753C152.436 50.3196 152.821 50.4418 153.276 50.4418ZM158.58 46.9091V51H157.822V44.4545H158.559V45.4815H158.627C158.781 45.1463 159.019 44.8778 159.343 44.6761C159.67 44.4716 160.073 44.3693 160.553 44.3693C160.994 44.3693 161.38 44.4616 161.712 44.6463C162.048 44.8281 162.308 45.0966 162.492 45.4517C162.68 45.8068 162.773 46.2429 162.773 46.7599V51H162.015V46.8068C162.015 46.2699 161.864 45.8452 161.563 45.5327C161.265 45.2202 160.864 45.0639 160.362 45.0639C160.018 45.0639 159.712 45.1378 159.445 45.2855C159.178 45.4332 158.967 45.6463 158.81 45.9247C158.657 46.2003 158.58 46.5284 158.58 46.9091ZM168.304 51V42.2727H169.1V50.2841H173.26V51H168.304ZM176.724 51.1491C176.329 51.1491 175.968 51.0724 175.642 50.919C175.315 50.7628 175.055 50.5384 174.862 50.2457C174.669 49.9503 174.572 49.5923 174.572 49.1719C174.572 48.848 174.633 48.5753 174.755 48.3537C174.877 48.1321 175.051 47.9503 175.275 47.8082C175.5 47.6662 175.765 47.554 176.072 47.4716C176.379 47.3892 176.717 47.3253 177.086 47.2798C177.453 47.2344 177.762 47.1946 178.015 47.1605C178.271 47.1264 178.466 47.0724 178.599 46.9986C178.733 46.9247 178.799 46.8054 178.799 46.6406V46.4872C178.799 46.0412 178.666 45.6903 178.399 45.4347C178.135 45.1761 177.754 45.0469 177.257 45.0469C176.785 45.0469 176.4 45.1506 176.102 45.358C175.806 45.5653 175.599 45.8097 175.48 46.0909L174.76 45.831C174.907 45.473 175.112 45.1875 175.373 44.9744C175.635 44.7585 175.927 44.6037 176.251 44.5099C176.575 44.4134 176.903 44.3651 177.235 44.3651C177.485 44.3651 177.745 44.3977 178.015 44.4631C178.288 44.5284 178.541 44.642 178.774 44.804C179.007 44.9631 179.196 45.1861 179.341 45.473C179.485 45.7571 179.558 46.1179 179.558 46.5554V51H178.799V49.9645H178.752C178.662 50.1577 178.527 50.3452 178.348 50.527C178.169 50.7088 177.944 50.858 177.674 50.9744C177.404 51.0909 177.088 51.1491 176.724 51.1491ZM176.826 50.4545C177.23 50.4545 177.579 50.3651 177.875 50.1861C178.17 50.0071 178.397 49.7699 178.556 49.4744C178.718 49.1761 178.799 48.848 178.799 48.4901V47.544C178.743 47.598 178.647 47.6463 178.514 47.6889C178.383 47.7315 178.231 47.7699 178.058 47.804C177.887 47.8352 177.717 47.8622 177.547 47.8849C177.376 47.9077 177.223 47.9276 177.086 47.9446C176.717 47.9901 176.402 48.0611 176.14 48.1577C175.879 48.2543 175.679 48.3878 175.539 48.5582C175.4 48.7259 175.331 48.9418 175.331 49.206C175.331 49.6037 175.473 49.9119 175.757 50.1307C176.041 50.3466 176.397 50.4545 176.826 50.4545ZM181.733 51V42.2727H182.496V45.7031H182.564C182.65 45.5071 182.772 45.3054 182.931 45.098C183.093 44.8906 183.304 44.7173 183.566 44.5781C183.83 44.4361 184.162 44.3651 184.563 44.3651C185.1 44.3651 185.571 44.5071 185.978 44.7912C186.384 45.0724 186.701 45.4673 186.928 45.9759C187.155 46.4815 187.269 47.071 187.269 47.7443C187.269 48.4205 187.155 49.0128 186.928 49.5213C186.703 50.0298 186.388 50.4261 185.982 50.7102C185.578 50.9943 185.11 51.1364 184.576 51.1364C184.178 51.1364 183.846 51.0653 183.578 50.9233C183.314 50.7812 183.101 50.6065 182.939 50.3991C182.777 50.1889 182.652 49.9844 182.564 49.7855H182.471V51H181.733ZM182.483 47.7315C182.483 48.2599 182.561 48.7287 182.718 49.1378C182.877 49.544 183.104 49.8636 183.4 50.0966C183.698 50.3267 184.059 50.4418 184.482 50.4418C184.917 50.4418 185.284 50.3224 185.586 50.0838C185.887 49.8423 186.115 49.517 186.272 49.108C186.428 48.6989 186.506 48.2401 186.506 47.7315C186.506 47.2287 186.428 46.7756 186.272 46.3722C186.118 45.9687 185.891 45.6491 185.59 45.4134C185.289 45.1747 184.919 45.0554 184.482 45.0554C184.056 45.0554 183.694 45.1705 183.395 45.4006C183.1 45.6278 182.874 45.9432 182.718 46.3466C182.561 46.7472 182.483 47.2088 182.483 47.7315Z" fill="black"/>
<path d="M1.2642 19V4.45455H7.00284C8.10606 4.45455 9.04593 4.66525 9.82244 5.08665C10.599 5.50331 11.1908 6.08333 11.598 6.8267C12.0099 7.56534 12.2159 8.41761 12.2159 9.38352C12.2159 10.3494 12.0076 11.2017 11.5909 11.9403C11.1742 12.679 10.5705 13.2543 9.77983 13.6662C8.99384 14.0781 8.04214 14.2841 6.92472 14.2841H3.26705V11.8196H6.42756C7.01941 11.8196 7.5071 11.7178 7.89062 11.5142C8.27888 11.3059 8.56771 11.0194 8.7571 10.6548C8.95123 10.2855 9.0483 9.86174 9.0483 9.38352C9.0483 8.90057 8.95123 8.47917 8.7571 8.11932C8.56771 7.75473 8.27888 7.47301 7.89062 7.27415C7.50237 7.07055 7.00994 6.96875 6.41335 6.96875H4.33949V19H1.2642ZM14.2134 19V4.45455H24.0146V6.99006H17.2887V10.456H23.5103V12.9915H17.2887V16.4645H24.043V19H14.2134ZM28.9666 19H25.6712L30.6925 4.45455H34.6555L39.6697 19H36.3743L32.7308 7.77841H32.6172L28.9666 19ZM28.7607 13.2827H36.5447V15.6832H28.7607V13.2827ZM53.5707 9.54688H50.4599C50.4031 9.14441 50.2871 8.78693 50.1119 8.47443C49.9367 8.1572 49.7118 7.88731 49.4371 7.66477C49.1625 7.44223 48.8453 7.27178 48.4854 7.15341C48.1303 7.03504 47.7444 6.97585 47.3278 6.97585C46.5749 6.97585 45.9192 7.16288 45.3604 7.53693C44.8017 7.90625 44.3685 8.44602 44.0607 9.15625C43.753 9.86174 43.5991 10.7187 43.5991 11.7273C43.5991 12.7642 43.753 13.6354 44.0607 14.3409C44.3732 15.0464 44.8088 15.5791 45.3675 15.9389C45.9263 16.2988 46.5726 16.4787 47.3065 16.4787C47.7184 16.4787 48.0996 16.4242 48.4499 16.3153C48.805 16.2064 49.1199 16.0478 49.3945 15.8395C49.6692 15.6264 49.8964 15.3684 50.0763 15.0653C50.261 14.7623 50.3888 14.4167 50.4599 14.0284L53.5707 14.0426C53.4902 14.7102 53.2889 15.3542 52.967 15.9744C52.6497 16.59 52.2212 17.1416 51.6815 17.6293C51.1464 18.1122 50.5072 18.4957 49.7638 18.7798C49.0252 19.0592 48.1895 19.1989 47.2567 19.1989C45.9594 19.1989 44.7994 18.9053 43.7766 18.3182C42.7586 17.7311 41.9537 16.8812 41.3619 15.7685C40.7747 14.6558 40.4812 13.3087 40.4812 11.7273C40.4812 10.1411 40.7795 8.79167 41.3761 7.67898C41.9727 6.56629 42.7823 5.71875 43.805 5.13636C44.8278 4.54924 45.9783 4.25568 47.2567 4.25568C48.0996 4.25568 48.8808 4.37405 49.6005 4.6108C50.3249 4.84754 50.9665 5.19318 51.5252 5.64773C52.0839 6.09754 52.5385 6.64915 52.8888 7.30256C53.244 7.95597 53.4712 8.70407 53.5707 9.54688ZM55.7759 19V4.45455H58.8512V10.456H65.0941V4.45455H68.1623V19H65.0941V12.9915H58.8512V19H55.7759ZM75.3267 19V4.45455H78.402V16.4645H84.6378V19H75.3267ZM89.7283 19.206C89.0323 19.206 88.4121 19.0852 87.8675 18.8438C87.323 18.5975 86.8922 18.2353 86.5749 17.7571C86.2624 17.2741 86.1062 16.6728 86.1062 15.9531C86.1062 15.3471 86.2174 14.8381 86.44 14.4261C86.6625 14.0142 86.9656 13.6828 87.3491 13.4318C87.7326 13.1809 88.1682 12.9915 88.6559 12.8636C89.1483 12.7358 89.6644 12.6458 90.2042 12.5938C90.8387 12.5275 91.35 12.4659 91.7383 12.4091C92.1265 12.3475 92.4083 12.2576 92.5835 12.1392C92.7586 12.0208 92.8462 11.8456 92.8462 11.6136V11.571C92.8462 11.1212 92.7042 10.7732 92.4201 10.527C92.1407 10.2808 91.743 10.1577 91.2269 10.1577C90.6824 10.1577 90.2492 10.2784 89.9272 10.5199C89.6052 10.7566 89.3922 11.0549 89.288 11.4148L86.4897 11.1875C86.6317 10.5246 86.9111 9.9517 87.3278 9.46875C87.7444 8.98106 88.2818 8.60701 88.94 8.34659C89.6029 8.08144 90.3699 7.94886 91.2411 7.94886C91.8472 7.94886 92.4272 8.01989 92.9812 8.16193C93.5399 8.30398 94.0347 8.52415 94.4656 8.82244C94.9012 9.12074 95.2444 9.50426 95.4954 9.97301C95.7463 10.437 95.8718 10.9934 95.8718 11.642V19H93.0025V17.4872H92.9173C92.7421 17.8281 92.5077 18.1288 92.2141 18.3892C91.9206 18.6449 91.5678 18.8461 91.1559 18.9929C90.744 19.1349 90.2681 19.206 89.7283 19.206ZM90.5948 17.1179C91.0399 17.1179 91.4329 17.0303 91.7738 16.8551C92.1147 16.6752 92.3822 16.4337 92.5763 16.1307C92.7705 15.8277 92.8675 15.4844 92.8675 15.1009V13.9432C92.7728 14.0047 92.6426 14.0616 92.4769 14.1136C92.3159 14.161 92.1336 14.206 91.93 14.2486C91.7264 14.2865 91.5228 14.322 91.3192 14.3551C91.1156 14.3835 90.931 14.4096 90.7653 14.4332C90.4102 14.4853 90.1 14.5682 89.8349 14.6818C89.5697 14.7955 89.3638 14.9493 89.217 15.1435C89.0702 15.3329 88.9968 15.5696 88.9968 15.8537C88.9968 16.2656 89.146 16.5805 89.4442 16.7983C89.7473 17.0114 90.1308 17.1179 90.5948 17.1179ZM98.2759 19V4.45455H101.301V9.9233H101.394C101.526 9.62973 101.718 9.33144 101.969 9.02841C102.225 8.72064 102.556 8.46496 102.963 8.26136C103.375 8.05303 103.887 7.94886 104.498 7.94886C105.293 7.94886 106.027 8.1572 106.699 8.57386C107.372 8.9858 107.909 9.60843 108.311 10.4418C108.714 11.2704 108.915 12.3097 108.915 13.5597C108.915 14.7765 108.719 15.804 108.326 16.642C107.937 17.4754 107.407 18.1075 106.735 18.5384C106.067 18.9645 105.319 19.1776 104.49 19.1776C103.903 19.1776 103.404 19.0805 102.992 18.8864C102.585 18.6922 102.251 18.4484 101.99 18.1548C101.73 17.8565 101.531 17.5559 101.394 17.2528H101.259V19H98.2759ZM101.238 13.5455C101.238 14.1941 101.328 14.7599 101.507 15.2429C101.687 15.7259 101.948 16.1023 102.289 16.3722C102.63 16.6373 103.044 16.7699 103.532 16.7699C104.024 16.7699 104.441 16.6349 104.782 16.3651C105.123 16.0904 105.381 15.7116 105.556 15.2287C105.736 14.741 105.826 14.1799 105.826 13.5455C105.826 12.9157 105.738 12.3617 105.563 11.8835C105.388 11.4053 105.13 11.0312 104.789 10.7614C104.448 10.4915 104.029 10.3565 103.532 10.3565C103.039 10.3565 102.623 10.4867 102.282 10.7472C101.945 11.0076 101.687 11.3769 101.507 11.8551C101.328 12.3333 101.238 12.8968 101.238 13.5455Z" fill="black"/>
<path d="M1.2642 19V4.45455H7.00284C8.10606 4.45455 9.04593 4.66525 9.82244 5.08665C10.599 5.50331 11.1908 6.08333 11.598 6.8267C12.0099 7.56534 12.2159 8.41761 12.2159 9.38352C12.2159 10.3494 12.0076 11.2017 11.5909 11.9403C11.1742 12.679 10.5705 13.2543 9.77983 13.6662C8.99384 14.0781 8.04214 14.2841 6.92472 14.2841H3.26705V11.8196H6.42756C7.01941 11.8196 7.5071 11.7178 7.89062 11.5142C8.27888 11.3059 8.56771 11.0194 8.7571 10.6548C8.95123 10.2855 9.0483 9.86174 9.0483 9.38352C9.0483 8.90057 8.95123 8.47917 8.7571 8.11932C8.56771 7.75473 8.27888 7.47301 7.89062 7.27415C7.50237 7.07055 7.00994 6.96875 6.41335 6.96875H4.33949V19H1.2642ZM14.2134 19V4.45455H24.0146V6.99006H17.2887V10.456H23.5103V12.9915H17.2887V16.4645H24.043V19H14.2134ZM28.9666 19H25.6712L30.6925 4.45455H34.6555L39.6697 19H36.3743L32.7308 7.77841H32.6172L28.9666 19ZM28.7607 13.2827H36.5447V15.6832H28.7607V13.2827ZM53.5707 9.54688H50.4599C50.4031 9.14441 50.2871 8.78693 50.1119 8.47443C49.9367 8.1572 49.7118 7.88731 49.4371 7.66477C49.1625 7.44223 48.8453 7.27178 48.4854 7.15341C48.1303 7.03504 47.7444 6.97585 47.3278 6.97585C46.5749 6.97585 45.9192 7.16288 45.3604 7.53693C44.8017 7.90625 44.3685 8.44602 44.0607 9.15625C43.753 9.86174 43.5991 10.7187 43.5991 11.7273C43.5991 12.7642 43.753 13.6354 44.0607 14.3409C44.3732 15.0464 44.8088 15.5791 45.3675 15.9389C45.9263 16.2988 46.5726 16.4787 47.3065 16.4787C47.7184 16.4787 48.0996 16.4242 48.4499 16.3153C48.805 16.2064 49.1199 16.0478 49.3945 15.8395C49.6692 15.6264 49.8964 15.3684 50.0763 15.0653C50.261 14.7623 50.3888 14.4167 50.4599 14.0284L53.5707 14.0426C53.4902 14.7102 53.2889 15.3542 52.967 15.9744C52.6497 16.59 52.2212 17.1416 51.6815 17.6293C51.1464 18.1122 50.5072 18.4957 49.7638 18.7798C49.0252 19.0592 48.1895 19.1989 47.2567 19.1989C45.9594 19.1989 44.7994 18.9053 43.7766 18.3182C42.7586 17.7311 41.9537 16.8812 41.3619 15.7685C40.7747 14.6558 40.4812 13.3087 40.4812 11.7273C40.4812 10.1411 40.7795 8.79167 41.3761 7.67898C41.9727 6.56629 42.7823 5.71875 43.805 5.13636C44.8278 4.54924 45.9783 4.25568 47.2567 4.25568C48.0996 4.25568 48.8808 4.37405 49.6005 4.6108C50.3249 4.84754 50.9665 5.19318 51.5252 5.64773C52.0839 6.09754 52.5385 6.64915 52.8888 7.30256C53.244 7.95597 53.4712 8.70407 53.5707 9.54688ZM55.7759 19V4.45455H58.8512V10.456H65.0941V4.45455H68.1623V19H65.0941V12.9915H58.8512V19H55.7759Z" fill="url(#paint0_radial_2_4)"/>
<path d="M75.2642 19V4.45455H78.3395V16.4645H84.5753V19H75.2642ZM89.6658 19.206C88.9698 19.206 88.3496 19.0852 87.805 18.8438C87.2605 18.5975 86.8297 18.2353 86.5124 17.7571C86.1999 17.2741 86.0437 16.6728 86.0437 15.9531C86.0437 15.3471 86.1549 14.8381 86.3775 14.4261C86.6 14.0142 86.9031 13.6828 87.2866 13.4318C87.6701 13.1809 88.1057 12.9915 88.5934 12.8636C89.0858 12.7358 89.6019 12.6458 90.1417 12.5938C90.7762 12.5275 91.2875 12.4659 91.6758 12.4091C92.064 12.3475 92.3458 12.2576 92.521 12.1392C92.6961 12.0208 92.7837 11.8456 92.7837 11.6136V11.571C92.7837 11.1212 92.6417 10.7732 92.3576 10.527C92.0782 10.2808 91.6805 10.1577 91.1644 10.1577C90.6199 10.1577 90.1867 10.2784 89.8647 10.5199C89.5427 10.7566 89.3297 11.0549 89.2255 11.4148L86.4272 11.1875C86.5692 10.5246 86.8486 9.9517 87.2653 9.46875C87.6819 8.98106 88.2193 8.60701 88.8775 8.34659C89.5404 8.08144 90.3074 7.94886 91.1786 7.94886C91.7847 7.94886 92.3647 8.01989 92.9187 8.16193C93.4774 8.30398 93.9722 8.52415 94.4031 8.82244C94.8387 9.12074 95.1819 9.50426 95.4329 9.97301C95.6838 10.437 95.8093 10.9934 95.8093 11.642V19H92.94V17.4872H92.8548C92.6796 17.8281 92.4452 18.1288 92.1516 18.3892C91.8581 18.6449 91.5053 18.8461 91.0934 18.9929C90.6815 19.1349 90.2056 19.206 89.6658 19.206ZM90.5323 17.1179C90.9774 17.1179 91.3704 17.0303 91.7113 16.8551C92.0522 16.6752 92.3197 16.4337 92.5138 16.1307C92.708 15.8277 92.805 15.4844 92.805 15.1009V13.9432C92.7103 14.0047 92.5801 14.0616 92.4144 14.1136C92.2534 14.161 92.0711 14.206 91.8675 14.2486C91.6639 14.2865 91.4603 14.322 91.2567 14.3551C91.0531 14.3835 90.8685 14.4096 90.7028 14.4332C90.3477 14.4853 90.0375 14.5682 89.7724 14.6818C89.5072 14.7955 89.3013 14.9493 89.1545 15.1435C89.0077 15.3329 88.9343 15.5696 88.9343 15.8537C88.9343 16.2656 89.0835 16.5805 89.3817 16.7983C89.6848 17.0114 90.0683 17.1179 90.5323 17.1179ZM98.2134 19V4.45455H101.239V9.9233H101.331C101.464 9.62973 101.656 9.33144 101.907 9.02841C102.162 8.72064 102.494 8.46496 102.901 8.26136C103.313 8.05303 103.824 7.94886 104.435 7.94886C105.23 7.94886 105.964 8.1572 106.637 8.57386C107.309 8.9858 107.846 9.60843 108.249 10.4418C108.651 11.2704 108.853 12.3097 108.853 13.5597C108.853 14.7765 108.656 15.804 108.263 16.642C107.875 17.4754 107.345 18.1075 106.672 18.5384C106.005 18.9645 105.257 19.1776 104.428 19.1776C103.841 19.1776 103.341 19.0805 102.929 18.8864C102.522 18.6922 102.188 18.4484 101.928 18.1548C101.667 17.8565 101.469 17.5559 101.331 17.2528H101.196V19H98.2134ZM101.175 13.5455C101.175 14.1941 101.265 14.7599 101.445 15.2429C101.625 15.7259 101.885 16.1023 102.226 16.3722C102.567 16.6373 102.981 16.7699 103.469 16.7699C103.962 16.7699 104.378 16.6349 104.719 16.3651C105.06 16.0904 105.318 15.7116 105.493 15.2287C105.673 14.741 105.763 14.1799 105.763 13.5455C105.763 12.9157 105.676 12.3617 105.5 11.8835C105.325 11.4053 105.067 11.0312 104.726 10.7614C104.385 10.4915 103.966 10.3565 103.469 10.3565C102.977 10.3565 102.56 10.4867 102.219 10.7472C101.883 11.0076 101.625 11.3769 101.445 11.8551C101.265 12.3333 101.175 12.8968 101.175 13.5455Z" fill="black"/>
<defs>
<radialGradient id="paint0_radial_2_4" cx="0" cy="0" r="1" gradientUnits="userSpaceOnUse" gradientTransform="translate(1.5 12) scale(66.5 22.8)">
<stop stop-color="#EC0B33"/>
<stop offset="0.497876" stop-color="#ED5532"/>
<stop offset="1" stop-color="#FDB36D"/>
</radialGradient>
</defs>
</svg>
