<svg width="185" height="54" viewBox="0 0 185 54" fill="none" xmlns="http://www.w3.org/2000/svg">
<path d="M1.15909 36V27.2727H3.97585C4.59517 27.2727 5.11222 27.392 5.52699 27.6307C5.9446 27.8665 6.25852 28.1875 6.46875 28.5938C6.68182 29 6.78835 29.4574 6.78835 29.9659C6.78835 30.4744 6.68324 30.9332 6.47301 31.3423C6.26278 31.7486 5.95028 32.071 5.53551 32.3097C5.12074 32.5455 4.60511 32.6634 3.98864 32.6634H1.77273V31.9474H3.96733C4.42472 31.9474 4.80398 31.8622 5.10511 31.6918C5.40625 31.5185 5.63068 31.2827 5.77841 30.9844C5.92898 30.6861 6.00426 30.3466 6.00426 29.9659C6.00426 29.5852 5.92898 29.2457 5.77841 28.9474C5.63068 28.6491 5.40483 28.4148 5.10085 28.2443C4.79972 28.0739 4.41761 27.9886 3.95455 27.9886H1.95597V36H1.15909ZM8.50142 36V29.4545H9.23864V30.4602H9.29403C9.42472 30.1307 9.65199 29.8651 9.97585 29.6634C10.3026 29.4588 10.6719 29.3565 11.0838 29.3565C11.1463 29.3565 11.2159 29.358 11.2926 29.3608C11.3693 29.3636 11.4332 29.3665 11.4844 29.3693V30.1406C11.4503 30.1349 11.3906 30.1264 11.3054 30.1151C11.2202 30.1037 11.1278 30.098 11.0284 30.098C10.6875 30.098 10.3835 30.1705 10.1165 30.3153C9.85227 30.4574 9.64347 30.6548 9.49006 30.9077C9.33665 31.1605 9.25994 31.4489 9.25994 31.7727V36H8.50142ZM12.7873 36V29.4545H13.5501V36H12.7873ZM13.1751 28.3295C13.0188 28.3295 12.8853 28.277 12.7745 28.1719C12.6637 28.0639 12.6083 27.9347 12.6083 27.7841C12.6083 27.6335 12.6637 27.5057 12.7745 27.4006C12.8853 27.2926 13.0188 27.2386 13.1751 27.2386C13.3313 27.2386 13.4648 27.2926 13.5756 27.4006C13.6864 27.5057 13.7418 27.6335 13.7418 27.7841C13.7418 27.9347 13.6864 28.0639 13.5756 28.1719C13.4648 28.277 13.3313 28.3295 13.1751 28.3295ZM20.6229 29.4545L18.2322 36H17.4226L15.032 29.4545H15.8544L17.7976 34.9986H17.8572L19.8004 29.4545H20.6229ZM23.7358 36.1491C23.3409 36.1491 22.9801 36.0724 22.6534 35.919C22.3267 35.7628 22.0668 35.5384 21.8736 35.2457C21.6804 34.9503 21.5838 34.5923 21.5838 34.1719C21.5838 33.848 21.6449 33.5753 21.767 33.3537C21.8892 33.1321 22.0625 32.9503 22.2869 32.8082C22.5114 32.6662 22.777 32.554 23.0838 32.4716C23.3906 32.3892 23.7287 32.3253 24.098 32.2798C24.4645 32.2344 24.7741 32.1946 25.027 32.1605C25.2827 32.1264 25.4773 32.0724 25.6108 31.9986C25.7443 31.9247 25.8111 31.8054 25.8111 31.6406V31.4872C25.8111 31.0412 25.6776 30.6903 25.4105 30.4347C25.1463 30.1761 24.7656 30.0469 24.2685 30.0469C23.7969 30.0469 23.4119 30.1506 23.1136 30.358C22.8182 30.5653 22.6108 30.8097 22.4915 31.0909L21.7713 30.831C21.919 30.473 22.1236 30.1875 22.3849 29.9744C22.6463 29.7585 22.9389 29.6037 23.2628 29.5099C23.5866 29.4134 23.9148 29.3651 24.2472 29.3651C24.4972 29.3651 24.7571 29.3977 25.027 29.4631C25.2997 29.5284 25.5526 29.642 25.7855 29.804C26.0185 29.9631 26.2074 30.1861 26.3523 30.473C26.4972 30.7571 26.5696 31.1179 26.5696 31.5554V36H25.8111V34.9645H25.7642C25.6733 35.1577 25.5384 35.3452 25.3594 35.527C25.1804 35.7088 24.956 35.858 24.6861 35.9744C24.4162 36.0909 24.0994 36.1491 23.7358 36.1491ZM23.8381 35.4545C24.2415 35.4545 24.5909 35.3651 24.8864 35.1861C25.1818 35.0071 25.4091 34.7699 25.5682 34.4744C25.7301 34.1761 25.8111 33.848 25.8111 33.4901V32.544C25.7543 32.598 25.6591 32.6463 25.5256 32.6889C25.3949 32.7315 25.2429 32.7699 25.0696 32.804C24.8991 32.8352 24.7287 32.8622 24.5582 32.8849C24.3878 32.9077 24.2344 32.9276 24.098 32.9446C23.7287 32.9901 23.4134 33.0611 23.152 33.1577C22.8906 33.2543 22.6903 33.3878 22.5511 33.5582C22.4119 33.7259 22.3423 33.9418 22.3423 34.206C22.3423 34.6037 22.4844 34.9119 22.7685 35.1307C23.0526 35.3466 23.4091 35.4545 23.8381 35.4545ZM31.1442 36.1364C30.5589 36.1364 30.049 35.9901 29.6143 35.6974C29.1825 35.4048 28.8473 35.0043 28.6087 34.4957C28.37 33.9872 28.2507 33.4077 28.2507 32.7571C28.2507 32.1009 28.3714 31.517 28.6129 31.0057C28.8572 30.4943 29.1953 30.0937 29.6271 29.804C30.0589 29.5114 30.5604 29.3651 31.1314 29.3651C31.5689 29.3651 31.9652 29.4503 32.3203 29.6207C32.6754 29.7884 32.968 30.0256 33.1982 30.3324C33.4311 30.6364 33.5774 30.9915 33.6371 31.3977H32.87C32.7905 31.0284 32.5987 30.7131 32.2947 30.4517C31.9936 30.1875 31.6101 30.0554 31.1442 30.0554C30.7266 30.0554 30.3572 30.169 30.0362 30.3963C29.7152 30.6207 29.4638 30.9347 29.282 31.3381C29.103 31.7386 29.0135 32.2031 29.0135 32.7315C29.0135 33.2628 29.1016 33.733 29.2777 34.142C29.4538 34.5483 29.701 34.8665 30.0192 35.0966C30.3402 35.3267 30.7152 35.4418 31.1442 35.4418C31.4339 35.4418 31.6982 35.3878 31.9368 35.2798C32.1783 35.169 32.38 35.0128 32.5419 34.8111C32.7067 34.6094 32.8175 34.3693 32.8743 34.0909H33.6413C33.5845 34.4858 33.4439 34.8381 33.2195 35.1477C32.9979 35.4545 32.7095 35.696 32.3544 35.8722C32.0021 36.0483 31.5987 36.1364 31.1442 36.1364ZM35.7955 38.4545C35.6449 38.4545 35.5043 38.4403 35.3736 38.4119C35.2429 38.3835 35.1392 38.3523 35.0625 38.3182L35.267 37.6491C35.5256 37.7287 35.7557 37.7571 35.9574 37.7344C36.1591 37.7145 36.3381 37.6236 36.4943 37.4616C36.6506 37.3026 36.7898 37.0582 36.9119 36.7287L37.1506 36.0639L34.7429 29.4545H35.5653L37.5085 34.9986H37.5682L39.5114 29.4545H40.3338L37.5639 37.0355C37.4474 37.3509 37.304 37.6136 37.1335 37.8239C36.9631 38.0369 36.7656 38.1946 36.5412 38.2969C36.3196 38.402 36.071 38.4545 35.7955 38.4545ZM45.3505 31.9006V32.6165H41.7198V31.9006H45.3505ZM47.413 36V27.2727H52.4755V27.9886H48.2099V31.2741H52.207V31.9901H48.2099V35.2841H52.5607V36H47.413ZM55.1388 31.9091V36H54.3803V29.4545H55.1175V30.4815H55.1857C55.3391 30.1463 55.5778 29.8778 55.9016 29.6761C56.2283 29.4716 56.6317 29.3693 57.1119 29.3693C57.5522 29.3693 57.9386 29.4616 58.271 29.6463C58.6062 29.8281 58.8661 30.0966 59.0508 30.4517C59.2383 30.8068 59.332 31.2429 59.332 31.7599V36H58.5735V31.8068C58.5735 31.2699 58.4229 30.8452 58.1218 30.5327C57.8235 30.2202 57.4229 30.0639 56.9201 30.0639C56.5763 30.0639 56.271 30.1378 56.0039 30.2855C55.7369 30.4332 55.5252 30.6463 55.369 30.9247C55.2156 31.2003 55.1388 31.5284 55.1388 31.9091ZM63.1577 36.1491C62.7628 36.1491 62.402 36.0724 62.0753 35.919C61.7486 35.7628 61.4886 35.5384 61.2955 35.2457C61.1023 34.9503 61.0057 34.5923 61.0057 34.1719C61.0057 33.848 61.0668 33.5753 61.1889 33.3537C61.3111 33.1321 61.4844 32.9503 61.7088 32.8082C61.9332 32.6662 62.1989 32.554 62.5057 32.4716C62.8125 32.3892 63.1506 32.3253 63.5199 32.2798C63.8864 32.2344 64.196 32.1946 64.4489 32.1605C64.7045 32.1264 64.8991 32.0724 65.0327 31.9986C65.1662 31.9247 65.233 31.8054 65.233 31.6406V31.4872C65.233 31.0412 65.0994 30.6903 64.8324 30.4347C64.5682 30.1761 64.1875 30.0469 63.6903 30.0469C63.2188 30.0469 62.8338 30.1506 62.5355 30.358C62.2401 30.5653 62.0327 30.8097 61.9134 31.0909L61.1932 30.831C61.3409 30.473 61.5455 30.1875 61.8068 29.9744C62.0682 29.7585 62.3608 29.6037 62.6847 29.5099C63.0085 29.4134 63.3366 29.3651 63.669 29.3651C63.919 29.3651 64.179 29.3977 64.4489 29.4631C64.7216 29.5284 64.9744 29.642 65.2074 29.804C65.4403 29.9631 65.6293 30.1861 65.7741 30.473C65.919 30.7571 65.9915 31.1179 65.9915 31.5554V36H65.233V34.9645H65.1861C65.0952 35.1577 64.9602 35.3452 64.7812 35.527C64.6023 35.7088 64.3778 35.858 64.108 35.9744C63.8381 36.0909 63.5213 36.1491 63.1577 36.1491ZM63.2599 35.4545C63.6634 35.4545 64.0128 35.3651 64.3082 35.1861C64.6037 35.0071 64.831 34.7699 64.9901 34.4744C65.152 34.1761 65.233 33.848 65.233 33.4901V32.544C65.1761 32.598 65.081 32.6463 64.9474 32.6889C64.8168 32.7315 64.6648 32.7699 64.4915 32.804C64.321 32.8352 64.1506 32.8622 63.9801 32.8849C63.8097 32.9077 63.6562 32.9276 63.5199 32.9446C63.1506 32.9901 62.8352 33.0611 62.5739 33.1577C62.3125 33.2543 62.1122 33.3878 61.973 33.5582C61.8338 33.7259 61.7642 33.9418 61.7642 34.206C61.7642 34.6037 61.9062 34.9119 62.1903 35.1307C62.4744 35.3466 62.831 35.4545 63.2599 35.4545ZM68.1669 36V27.2727H68.9297V30.7031H68.9979C69.0831 30.5071 69.2053 30.3054 69.3643 30.098C69.5263 29.8906 69.7379 29.7173 69.9993 29.5781C70.2635 29.4361 70.5959 29.3651 70.9964 29.3651C71.5334 29.3651 72.005 29.5071 72.4112 29.7912C72.8175 30.0724 73.1342 30.4673 73.3615 30.9759C73.5888 31.4815 73.7024 32.071 73.7024 32.7443C73.7024 33.4205 73.5888 34.0128 73.3615 34.5213C73.1371 35.0298 72.8217 35.4261 72.4155 35.7102C72.0121 35.9943 71.5433 36.1364 71.0092 36.1364C70.6115 36.1364 70.2791 36.0653 70.0121 35.9233C69.7479 35.7812 69.5348 35.6065 69.3729 35.3991C69.2109 35.1889 69.0859 34.9844 68.9979 34.7855H68.9041V36H68.1669ZM68.9169 32.7315C68.9169 33.2599 68.995 33.7287 69.1513 34.1378C69.3104 34.544 69.5376 34.8636 69.8331 35.0966C70.1314 35.3267 70.4922 35.4418 70.9155 35.4418C71.3501 35.4418 71.718 35.3224 72.0192 35.0838C72.3203 34.8423 72.549 34.517 72.7053 34.108C72.8615 33.6989 72.9396 33.2401 72.9396 32.7315C72.9396 32.2287 72.8615 31.7756 72.7053 31.3722C72.5518 30.9687 72.3246 30.6491 72.0234 30.4134C71.7223 30.1747 71.353 30.0554 70.9155 30.0554C70.4893 30.0554 70.1271 30.1705 69.8288 30.4006C69.5334 30.6278 69.3075 30.9432 69.1513 31.3466C68.995 31.7472 68.9169 32.2088 68.9169 32.7315ZM76.1271 27.2727V36H75.3686V27.2727H76.1271ZM78.1428 36V29.4545H78.9055V36H78.1428ZM78.5305 28.3295C78.3743 28.3295 78.2408 28.277 78.13 28.1719C78.0192 28.0639 77.9638 27.9347 77.9638 27.7841C77.9638 27.6335 78.0192 27.5057 78.13 27.4006C78.2408 27.2926 78.3743 27.2386 78.5305 27.2386C78.6868 27.2386 78.8203 27.2926 78.9311 27.4006C79.0419 27.5057 79.0973 27.6335 79.0973 27.7841C79.0973 27.9347 79.0419 28.0639 78.9311 28.1719C78.8203 28.277 78.6868 28.3295 78.5305 28.3295ZM81.6701 31.9091V36H80.9116V29.4545H81.6488V30.4815H81.717C81.8704 30.1463 82.109 29.8778 82.4329 29.6761C82.7596 29.4716 83.163 29.3693 83.6431 29.3693C84.0835 29.3693 84.4698 29.4616 84.8022 29.6463C85.1374 29.8281 85.3974 30.0966 85.582 30.4517C85.7695 30.8068 85.8633 31.2429 85.8633 31.7599V36H85.1048V31.8068C85.1048 31.2699 84.9542 30.8452 84.6531 30.5327C84.3548 30.2202 83.9542 30.0639 83.4513 30.0639C83.1076 30.0639 82.8022 30.1378 82.5352 30.2855C82.2681 30.4332 82.0565 30.6463 81.9002 30.9247C81.7468 31.2003 81.6701 31.5284 81.6701 31.9091ZM90.358 38.5909C89.9119 38.5909 89.5213 38.5327 89.1861 38.4162C88.8509 38.3026 88.5682 38.1463 88.3381 37.9474C88.108 37.7486 87.929 37.5256 87.8011 37.2784L88.4233 36.8693C88.517 37.0341 88.642 37.196 88.7983 37.3551C88.9574 37.5142 89.1634 37.6463 89.4162 37.7514C89.6719 37.8565 89.9858 37.9091 90.358 37.9091C90.9375 37.9091 91.4048 37.7642 91.7599 37.4744C92.1179 37.1847 92.2969 36.7344 92.2969 36.1236V34.6491H92.2287C92.1406 34.848 92.0142 35.0469 91.8494 35.2457C91.6847 35.4418 91.4688 35.6051 91.2017 35.7358C90.9375 35.8665 90.6094 35.9318 90.2173 35.9318C89.6946 35.9318 89.2301 35.8026 88.8239 35.544C88.4205 35.2855 88.1023 34.9162 87.8693 34.4361C87.6392 33.9531 87.5241 33.3778 87.5241 32.7102C87.5241 32.0483 87.6364 31.4659 87.8608 30.9631C88.0881 30.4602 88.4048 30.0682 88.8111 29.7869C89.2173 29.5057 89.6903 29.3651 90.2301 29.3651C90.6307 29.3651 90.9631 29.4361 91.2273 29.5781C91.4915 29.7173 91.7031 29.8906 91.8622 30.098C92.0241 30.3054 92.1506 30.5071 92.2415 30.7031H92.3182V29.4545H93.0597V36.1705C93.0597 36.7244 92.9418 37.1804 92.706 37.5384C92.4702 37.8963 92.1491 38.1605 91.7429 38.331C91.3366 38.5043 90.875 38.5909 90.358 38.5909ZM90.3068 35.2372C90.7273 35.2372 91.0866 35.1364 91.3849 34.9347C91.6832 34.7301 91.9119 34.4375 92.071 34.0568C92.2301 33.6761 92.3097 33.223 92.3097 32.6974C92.3097 32.1861 92.2315 31.733 92.0753 31.3381C91.919 30.9403 91.6918 30.6278 91.3935 30.4006C91.098 30.1705 90.7358 30.0554 90.3068 30.0554C89.8693 30.0554 89.5 30.1733 89.1989 30.4091C88.8977 30.6449 88.6705 30.9631 88.517 31.3636C88.3636 31.7614 88.2869 32.206 88.2869 32.6974C88.2869 33.1974 88.3651 33.6392 88.5213 34.0227C88.6776 34.4034 88.9063 34.7017 89.2074 34.9176C89.5085 35.1307 89.875 35.2372 90.3068 35.2372ZM98.6133 36H97.7781L100.953 27.2727H101.805L104.98 36H104.145L101.409 28.3082H101.349L98.6133 36ZM99.2141 32.6548H103.544V33.3707H99.2141V32.6548ZM107.272 27.2727V36H106.475V27.2727H107.272ZM115.145 36.1193C114.608 36.1193 114.14 36.0156 113.739 35.8082C113.338 35.598 113.027 35.3125 112.806 34.9517C112.584 34.5909 112.473 34.1832 112.473 33.7287C112.473 33.3991 112.54 33.1023 112.674 32.8381C112.81 32.571 113.006 32.3182 113.262 32.0795C113.517 31.8381 113.827 31.5881 114.191 31.3295L115.456 30.3878C115.757 30.1719 115.986 29.9602 116.142 29.7528C116.301 29.5426 116.381 29.2855 116.381 28.9815C116.381 28.6889 116.27 28.4276 116.049 28.1974C115.83 27.9645 115.546 27.848 115.196 27.848C114.952 27.848 114.733 27.9091 114.54 28.0312C114.35 28.1534 114.198 28.3125 114.084 28.5085C113.973 28.7017 113.918 28.9048 113.918 29.1179C113.918 29.3168 113.969 29.517 114.071 29.7188C114.174 29.9176 114.311 30.1278 114.485 30.3494C114.658 30.5682 114.851 30.8097 115.064 31.0739L119.053 36H118.132L114.655 31.7344C114.363 31.3764 114.103 31.0568 113.875 30.7756C113.648 30.4915 113.469 30.2188 113.338 29.9574C113.208 29.6932 113.142 29.4105 113.142 29.1094C113.142 28.7372 113.229 28.4062 113.402 28.1165C113.576 27.8239 113.814 27.5937 114.118 27.4261C114.425 27.2585 114.776 27.1747 115.171 27.1747C115.574 27.1747 115.924 27.2571 116.219 27.4219C116.517 27.5866 116.748 27.8054 116.909 28.0781C117.074 28.3509 117.157 28.652 117.157 28.9815C117.157 29.3764 117.054 29.7259 116.85 30.0298C116.648 30.3338 116.354 30.6321 115.968 30.9247L114.382 32.1094C113.948 32.4361 113.65 32.7386 113.488 33.017C113.326 33.2955 113.245 33.5327 113.245 33.7287C113.245 34.0355 113.324 34.3182 113.483 34.5767C113.642 34.8352 113.863 35.0426 114.144 35.1989C114.428 35.3551 114.753 35.4347 115.12 35.4375C115.483 35.4347 115.826 35.3622 116.147 35.2202C116.468 35.0753 116.755 34.8693 117.007 34.6023C117.263 34.3352 117.468 34.0156 117.621 33.6435C117.777 33.2713 117.868 32.8565 117.894 32.3991L118.631 32.4077C118.62 32.8764 118.556 33.2741 118.439 33.6009C118.326 33.9247 118.195 34.1918 118.047 34.402C117.9 34.6122 117.77 34.7812 117.659 34.9091C117.628 34.9517 117.597 34.9943 117.566 35.0369C117.534 35.0795 117.502 35.1222 117.468 35.1648C117.184 35.4773 116.83 35.7145 116.407 35.8764C115.986 36.0384 115.566 36.1193 115.145 36.1193ZM7.99432 45H7.19318C7.13352 44.7017 7.02557 44.4261 6.86932 44.1733C6.71591 43.9176 6.52273 43.6946 6.28977 43.5043C6.05682 43.3139 5.79261 43.1662 5.49716 43.0611C5.2017 42.956 4.8821 42.9034 4.53835 42.9034C3.98722 42.9034 3.48438 43.0469 3.02983 43.3338C2.57813 43.6207 2.21591 44.0426 1.94318 44.5994C1.6733 45.1534 1.53835 45.8324 1.53835 46.6364C1.53835 47.446 1.6733 48.1278 1.94318 48.6818C2.21591 49.2358 2.57813 49.6562 3.02983 49.9432C3.48438 50.2273 3.98722 50.3693 4.53835 50.3693C4.8821 50.3693 5.2017 50.3168 5.49716 50.2116C5.79261 50.1065 6.05682 49.9602 6.28977 49.7727C6.52273 49.5824 6.71591 49.3594 6.86932 49.1037C7.02557 48.848 7.13352 48.571 7.19318 48.2727H7.99432C7.9233 48.6733 7.78977 49.0469 7.59375 49.3935C7.40057 49.7372 7.15341 50.0384 6.85227 50.2969C6.55398 50.5554 6.21023 50.7571 5.82102 50.902C5.43182 51.0469 5.00426 51.1193 4.53835 51.1193C3.8054 51.1193 3.15483 50.9361 2.58665 50.5696C2.01847 50.2003 1.57244 49.6804 1.24858 49.0099C0.927557 48.3395 0.767045 47.5483 0.767045 46.6364C0.767045 45.7244 0.927557 44.9332 1.24858 44.2628C1.57244 43.5923 2.01847 43.0739 2.58665 42.7074C3.15483 42.3381 3.8054 42.1534 4.53835 42.1534C5.00426 42.1534 5.43182 42.2259 5.82102 42.3707C6.21023 42.5128 6.55398 42.7145 6.85227 42.9759C7.15341 43.2344 7.40057 43.5355 7.59375 43.8793C7.78977 44.223 7.9233 44.5966 7.99432 45ZM12.2525 51.1364C11.6871 51.1364 11.1871 50.9929 10.7525 50.706C10.3207 50.419 9.9826 50.0227 9.73828 49.517C9.49396 49.0085 9.3718 48.4219 9.3718 47.7571C9.3718 47.0866 9.49396 46.4972 9.73828 45.9886C9.9826 45.4773 10.3207 45.0795 10.7525 44.7955C11.1871 44.5085 11.6871 44.3651 12.2525 44.3651C12.8178 44.3651 13.3164 44.5085 13.7482 44.7955C14.18 45.0824 14.5181 45.4801 14.7624 45.9886C15.0096 46.4972 15.1332 47.0866 15.1332 47.7571C15.1332 48.4219 15.011 49.0085 14.7667 49.517C14.5224 50.0227 14.1829 50.419 13.7482 50.706C13.3164 50.9929 12.8178 51.1364 12.2525 51.1364ZM12.2525 50.4418C12.707 50.4418 13.092 50.3196 13.4073 50.0753C13.7227 49.831 13.9613 49.5057 14.1232 49.0994C14.288 48.6932 14.3704 48.2457 14.3704 47.7571C14.3704 47.2685 14.288 46.8196 14.1232 46.4105C13.9613 46.0014 13.7227 45.6733 13.4073 45.4261C13.092 45.179 12.707 45.0554 12.2525 45.0554C11.8008 45.0554 11.4158 45.179 11.0977 45.4261C10.7823 45.6733 10.5423 46.0014 10.3775 46.4105C10.2156 46.8196 10.1346 47.2685 10.1346 47.7571C10.1346 48.2457 10.2156 48.6932 10.3775 49.0994C10.5423 49.5057 10.7823 49.831 11.0977 50.0753C11.413 50.3196 11.7979 50.4418 12.2525 50.4418ZM16.7983 51V44.4545H17.5355V45.4602H17.6037C17.7344 45.1222 17.9517 44.8565 18.2557 44.6634C18.5625 44.4673 18.9304 44.3693 19.3594 44.3693C19.8111 44.3693 20.1818 44.4759 20.4716 44.6889C20.7642 44.8991 20.983 45.1889 21.1278 45.5582H21.1832C21.331 45.1946 21.571 44.9062 21.9034 44.6932C22.2386 44.4773 22.6449 44.3693 23.1222 44.3693C23.7301 44.3693 24.2102 44.5611 24.5625 44.9446C24.9148 45.3253 25.0909 45.8821 25.0909 46.6151V51H24.3324V46.6151C24.3324 46.098 24.2003 45.7102 23.9361 45.4517C23.6719 45.1932 23.3239 45.0639 22.892 45.0639C22.392 45.0639 22.0071 45.2173 21.7372 45.5241C21.4673 45.831 21.3324 46.2202 21.3324 46.6918V51H20.5568V46.5469C20.5568 46.1037 20.4332 45.7457 20.1861 45.473C19.9389 45.2003 19.5909 45.0639 19.142 45.0639C18.8409 45.0639 18.5696 45.1378 18.3281 45.2855C18.0895 45.4332 17.9006 45.6392 17.7614 45.9034C17.625 46.1648 17.5568 46.4659 17.5568 46.8068V51H16.7983ZM27.0991 53.4545V44.4545H27.8363V45.7031H27.9258C28.0167 45.5071 28.1417 45.3068 28.3008 45.1023C28.4599 44.8949 28.6701 44.7202 28.9315 44.5781C29.1957 44.4361 29.5281 44.3651 29.9286 44.3651C30.4684 44.3651 30.94 44.5071 31.3434 44.7912C31.7496 45.0724 32.065 45.4673 32.2894 45.9759C32.5167 46.4815 32.6303 47.071 32.6303 47.7443C32.6303 48.4205 32.5167 49.0128 32.2894 49.5213C32.065 50.0298 31.7496 50.4261 31.3434 50.7102C30.94 50.9943 30.4712 51.1364 29.9371 51.1364C29.5423 51.1364 29.2113 51.0653 28.9442 50.9233C28.68 50.7812 28.4656 50.6065 28.3008 50.3991C28.1388 50.1889 28.0138 49.9844 27.9258 49.7855H27.8576V53.4545H27.0991ZM27.8491 47.7315C27.8491 48.2599 27.9272 48.7287 28.0835 49.1378C28.2425 49.544 28.4698 49.8636 28.7653 50.0966C29.0636 50.3267 29.4244 50.4418 29.8477 50.4418C30.2823 50.4418 30.6488 50.3224 30.9471 50.0838C31.2482 49.8423 31.4769 49.517 31.6332 49.108C31.7923 48.6989 31.8718 48.2401 31.8718 47.7315C31.8718 47.2287 31.7937 46.7756 31.6374 46.3722C31.484 45.9687 31.2567 45.6491 30.9556 45.4134C30.6545 45.1747 30.2852 45.0554 29.8477 45.0554C29.4215 45.0554 29.0593 45.1705 28.761 45.4006C28.4627 45.6278 28.2354 45.9432 28.0792 46.3466C27.9258 46.7472 27.8491 47.2088 27.8491 47.7315ZM38.4535 48.4986V44.4545H39.212V51H38.4535V49.9134H38.3938C38.2404 50.2486 37.9975 50.5284 37.6651 50.7528C37.3327 50.9744 36.9265 51.0852 36.4464 51.0852C36.0288 51.0852 35.658 50.9943 35.3342 50.8125C35.0103 50.6278 34.756 50.358 34.5714 50.0028C34.3867 49.6477 34.2944 49.2116 34.2944 48.6946V44.4545H35.0529V48.6477C35.0529 49.1591 35.2035 49.571 35.5046 49.8835C35.8058 50.1932 36.1921 50.348 36.6637 50.348C36.9592 50.348 37.2433 50.277 37.516 50.1349C37.7887 49.9929 38.0131 49.7855 38.1893 49.5128C38.3654 49.2372 38.4535 48.8991 38.4535 48.4986ZM43.7983 44.4545V45.1151H40.6747V44.4545H43.7983ZM41.6506 42.8864H42.4134V49.2912C42.4134 49.5639 42.4602 49.7784 42.554 49.9347C42.6477 50.0881 42.7699 50.1974 42.9205 50.2628C43.071 50.3253 43.2315 50.3565 43.402 50.3565C43.5014 50.3565 43.5866 50.3509 43.6577 50.3395C43.7287 50.3253 43.7912 50.3111 43.8452 50.2969L44.0071 50.983C43.9332 51.0114 43.8423 51.0369 43.7344 51.0597C43.6264 51.0852 43.4929 51.098 43.3338 51.098C43.0554 51.098 42.7869 51.0369 42.5284 50.9148C42.2727 50.7926 42.0625 50.6108 41.8977 50.3693C41.733 50.1278 41.6506 49.8281 41.6506 49.4702V42.8864ZM48.0969 51.1364C47.4862 51.1364 46.9577 50.9943 46.5117 50.7102C46.0657 50.4233 45.7205 50.027 45.4762 49.5213C45.2347 49.0128 45.114 48.4276 45.114 47.7656C45.114 47.1065 45.2347 46.5213 45.4762 46.0099C45.7205 45.4957 46.0572 45.0937 46.4862 44.804C46.918 44.5114 47.4165 44.3651 47.9819 44.3651C48.337 44.3651 48.6793 44.4304 49.0089 44.5611C49.3384 44.6889 49.6339 44.8864 49.8952 45.1534C50.1594 45.4176 50.3683 45.7514 50.5217 46.1548C50.6751 46.5554 50.7518 47.0298 50.7518 47.5781V47.9531H45.6381V47.2841H49.9762C49.9762 46.8636 49.891 46.4858 49.7205 46.1506C49.5529 45.8125 49.3185 45.5455 49.0174 45.3494C48.7191 45.1534 48.3739 45.0554 47.9819 45.0554C47.5671 45.0554 47.2021 45.1662 46.8867 45.3878C46.5714 45.6094 46.3242 45.902 46.1452 46.2656C45.9691 46.6293 45.8796 47.027 45.8768 47.4588V47.8594C45.8768 48.3793 45.9663 48.8338 46.1452 49.223C46.3271 49.6094 46.5842 49.9091 46.9165 50.1222C47.2489 50.3352 47.6424 50.4418 48.0969 50.4418C48.4066 50.4418 48.6779 50.3935 48.9109 50.2969C49.1467 50.2003 49.3441 50.071 49.5032 49.9091C49.6651 49.7443 49.7873 49.5639 49.8697 49.3679L50.5898 49.6023C50.4904 49.8778 50.3271 50.1321 50.0998 50.3651C49.8754 50.598 49.5941 50.7855 49.256 50.9276C48.9208 51.0668 48.5344 51.1364 48.0969 51.1364ZM55.956 46.9006V47.6165H52.3253V46.9006H55.956ZM58.0185 51V42.2727H58.8153V46.2741H63.767V42.2727H64.5639V51H63.767V46.9901H58.8153V51H58.0185ZM70.8793 48.4986V44.4545H71.6378V51H70.8793V49.9134H70.8196C70.6662 50.2486 70.4233 50.5284 70.0909 50.7528C69.7585 50.9744 69.3523 51.0852 68.8722 51.0852C68.4545 51.0852 68.0838 50.9943 67.7599 50.8125C67.4361 50.6278 67.1818 50.358 66.9972 50.0028C66.8125 49.6477 66.7202 49.2116 66.7202 48.6946V44.4545H67.4787V48.6477C67.4787 49.1591 67.6293 49.571 67.9304 49.8835C68.2315 50.1932 68.6179 50.348 69.0895 50.348C69.3849 50.348 69.669 50.277 69.9418 50.1349C70.2145 49.9929 70.4389 49.7855 70.6151 49.5128C70.7912 49.2372 70.8793 48.8991 70.8793 48.4986ZM73.646 51V44.4545H74.3832V45.4602H74.4513C74.582 45.1222 74.7994 44.8565 75.1033 44.6634C75.4102 44.4673 75.7781 44.3693 76.207 44.3693C76.6587 44.3693 77.0295 44.4759 77.3192 44.6889C77.6119 44.8991 77.8306 45.1889 77.9755 45.5582H78.0309C78.1786 45.1946 78.4187 44.9062 78.7511 44.6932C79.0863 44.4773 79.4925 44.3693 79.9698 44.3693C80.5778 44.3693 81.0579 44.5611 81.4102 44.9446C81.7624 45.3253 81.9386 45.8821 81.9386 46.6151V51H81.18V46.6151C81.18 46.098 81.0479 45.7102 80.7837 45.4517C80.5195 45.1932 80.1715 45.0639 79.7397 45.0639C79.2397 45.0639 78.8548 45.2173 78.5849 45.5241C78.315 45.831 78.18 46.2202 78.18 46.6918V51H77.4045V46.5469C77.4045 46.1037 77.2809 45.7457 77.0337 45.473C76.7866 45.2003 76.4386 45.0639 75.9897 45.0639C75.6886 45.0639 75.4173 45.1378 75.1758 45.2855C74.9371 45.4332 74.7482 45.6392 74.609 45.9034C74.4727 46.1648 74.4045 46.4659 74.4045 46.8068V51H73.646ZM85.7749 51.1491C85.38 51.1491 85.0192 51.0724 84.6925 50.919C84.3658 50.7628 84.1058 50.5384 83.9126 50.2457C83.7195 49.9503 83.6229 49.5923 83.6229 49.1719C83.6229 48.848 83.6839 48.5753 83.8061 48.3537C83.9283 48.1321 84.1016 47.9503 84.326 47.8082C84.5504 47.6662 84.8161 47.554 85.1229 47.4716C85.4297 47.3892 85.7678 47.3253 86.1371 47.2798C86.5036 47.2344 86.8132 47.1946 87.0661 47.1605C87.3217 47.1264 87.5163 47.0724 87.6499 46.9986C87.7834 46.9247 87.8501 46.8054 87.8501 46.6406V46.4872C87.8501 46.0412 87.7166 45.6903 87.4496 45.4347C87.1854 45.1761 86.8047 45.0469 86.3075 45.0469C85.8359 45.0469 85.451 45.1506 85.1527 45.358C84.8572 45.5653 84.6499 45.8097 84.5305 46.0909L83.8104 45.831C83.9581 45.473 84.1626 45.1875 84.424 44.9744C84.6854 44.7585 84.978 44.6037 85.3018 44.5099C85.6257 44.4134 85.9538 44.3651 86.2862 44.3651C86.5362 44.3651 86.7962 44.3977 87.0661 44.4631C87.3388 44.5284 87.5916 44.642 87.8246 44.804C88.0575 44.9631 88.2464 45.1861 88.3913 45.473C88.5362 45.7571 88.6087 46.1179 88.6087 46.5554V51H87.8501V49.9645H87.8033C87.7124 50.1577 87.5774 50.3452 87.3984 50.527C87.2195 50.7088 86.995 50.858 86.7251 50.9744C86.4553 51.0909 86.1385 51.1491 85.7749 51.1491ZM85.8771 50.4545C86.2805 50.4545 86.63 50.3651 86.9254 50.1861C87.2209 50.0071 87.4482 49.7699 87.6072 49.4744C87.7692 49.1761 87.8501 48.848 87.8501 48.4901V47.544C87.7933 47.598 87.6982 47.6463 87.5646 47.6889C87.4339 47.7315 87.282 47.7699 87.1087 47.804C86.9382 47.8352 86.7678 47.8622 86.5973 47.8849C86.4268 47.9077 86.2734 47.9276 86.1371 47.9446C85.7678 47.9901 85.4524 48.0611 85.1911 48.1577C84.9297 48.2543 84.7294 48.3878 84.5902 48.5582C84.451 48.7259 84.3814 48.9418 84.3814 49.206C84.3814 49.6037 84.5234 49.9119 84.8075 50.1307C85.0916 50.3466 85.4482 50.4545 85.8771 50.4545ZM91.3849 46.9091V51H90.6264V44.4545H91.3636V45.4815H91.4318C91.5852 45.1463 91.8239 44.8778 92.1477 44.6761C92.4744 44.4716 92.8778 44.3693 93.358 44.3693C93.7983 44.3693 94.1847 44.4616 94.517 44.6463C94.8523 44.8281 95.1122 45.0966 95.2969 45.4517C95.4844 45.8068 95.5781 46.2429 95.5781 46.7599V51H94.8196V46.8068C94.8196 46.2699 94.669 45.8452 94.3679 45.5327C94.0696 45.2202 93.669 45.0639 93.1662 45.0639C92.8224 45.0639 92.517 45.1378 92.25 45.2855C91.983 45.4332 91.7713 45.6463 91.6151 45.9247C91.4616 46.2003 91.3849 46.5284 91.3849 46.9091ZM101.905 42.2727V51H101.108V42.2727H101.905ZM104.826 46.9091V51H104.068V44.4545H104.805V45.4815H104.873C105.027 45.1463 105.265 44.8778 105.589 44.6761C105.916 44.4716 106.319 44.3693 106.799 44.3693C107.24 44.3693 107.626 44.4616 107.958 44.6463C108.294 44.8281 108.554 45.0966 108.738 45.4517C108.926 45.8068 109.02 46.2429 109.02 46.7599V51H108.261V46.8068C108.261 46.2699 108.11 45.8452 107.809 45.5327C107.511 45.2202 107.11 45.0639 106.608 45.0639C106.264 45.0639 105.958 45.1378 105.691 45.2855C105.424 45.4332 105.213 45.6463 105.056 45.9247C104.903 46.2003 104.826 46.5284 104.826 46.9091ZM113.595 44.4545V45.1151H110.472V44.4545H113.595ZM111.447 42.8864H112.21V49.2912C112.21 49.5639 112.257 49.7784 112.351 49.9347C112.445 50.0881 112.567 50.1974 112.717 50.2628C112.868 50.3253 113.028 50.3565 113.199 50.3565C113.298 50.3565 113.384 50.3509 113.455 50.3395C113.526 50.3253 113.588 50.3111 113.642 50.2969L113.804 50.983C113.73 51.0114 113.639 51.0369 113.531 51.0597C113.423 51.0852 113.29 51.098 113.131 51.098C112.852 51.098 112.584 51.0369 112.325 50.9148C112.07 50.7926 111.859 50.6108 111.695 50.3693C111.53 50.1278 111.447 49.8281 111.447 49.4702V42.8864ZM117.894 51.1364C117.283 51.1364 116.755 50.9943 116.309 50.7102C115.863 50.4233 115.517 50.027 115.273 49.5213C115.032 49.0128 114.911 48.4276 114.911 47.7656C114.911 47.1065 115.032 46.5213 115.273 46.0099C115.517 45.4957 115.854 45.0937 116.283 44.804C116.715 44.5114 117.213 44.3651 117.779 44.3651C118.134 44.3651 118.476 44.4304 118.806 44.5611C119.135 44.6889 119.431 44.8864 119.692 45.1534C119.956 45.4176 120.165 45.7514 120.319 46.1548C120.472 46.5554 120.549 47.0298 120.549 47.5781V47.9531H115.435V47.2841H119.773C119.773 46.8636 119.688 46.4858 119.517 46.1506C119.35 45.8125 119.115 45.5455 118.814 45.3494C118.516 45.1534 118.171 45.0554 117.779 45.0554C117.364 45.0554 116.999 45.1662 116.684 45.3878C116.368 45.6094 116.121 45.902 115.942 46.2656C115.766 46.6293 115.676 47.027 115.674 47.4588V47.8594C115.674 48.3793 115.763 48.8338 115.942 49.223C116.124 49.6094 116.381 49.9091 116.713 50.1222C117.046 50.3352 117.439 50.4418 117.894 50.4418C118.203 50.4418 118.475 50.3935 118.708 50.2969C118.944 50.2003 119.141 50.071 119.3 49.9091C119.462 49.7443 119.584 49.5639 119.667 49.3679L120.387 49.6023C120.287 49.8778 120.124 50.1321 119.897 50.3651C119.672 50.598 119.391 50.7855 119.053 50.9276C118.718 51.0668 118.331 51.1364 117.894 51.1364ZM122.22 51V44.4545H122.957V45.4602H123.013C123.143 45.1307 123.371 44.8651 123.695 44.6634C124.021 44.4588 124.391 44.3565 124.803 44.3565C124.865 44.3565 124.935 44.358 125.011 44.3608C125.088 44.3636 125.152 44.3665 125.203 44.3693V45.1406C125.169 45.1349 125.109 45.1264 125.024 45.1151C124.939 45.1037 124.847 45.098 124.747 45.098C124.406 45.098 124.102 45.1705 123.835 45.3153C123.571 45.4574 123.362 45.6548 123.209 45.9077C123.055 46.1605 122.979 46.4489 122.979 46.7727V51H122.22ZM128.326 51.1491C127.931 51.1491 127.57 51.0724 127.243 50.919C126.917 50.7628 126.657 50.5384 126.463 50.2457C126.27 49.9503 126.174 49.5923 126.174 49.1719C126.174 48.848 126.235 48.5753 126.357 48.3537C126.479 48.1321 126.652 47.9503 126.877 47.8082C127.101 47.6662 127.367 47.554 127.674 47.4716C127.98 47.3892 128.319 47.3253 128.688 47.2798C129.054 47.2344 129.364 47.1946 129.617 47.1605C129.873 47.1264 130.067 47.0724 130.201 46.9986C130.334 46.9247 130.401 46.8054 130.401 46.6406V46.4872C130.401 46.0412 130.267 45.6903 130 45.4347C129.736 45.1761 129.355 45.0469 128.858 45.0469C128.387 45.0469 128.002 45.1506 127.703 45.358C127.408 45.5653 127.201 45.8097 127.081 46.0909L126.361 45.831C126.509 45.473 126.713 45.1875 126.975 44.9744C127.236 44.7585 127.529 44.6037 127.853 44.5099C128.176 44.4134 128.505 44.3651 128.837 44.3651C129.087 44.3651 129.347 44.3977 129.617 44.4631C129.89 44.5284 130.142 44.642 130.375 44.804C130.608 44.9631 130.797 45.1861 130.942 45.473C131.087 45.7571 131.159 46.1179 131.159 46.5554V51H130.401V49.9645H130.354C130.263 50.1577 130.128 50.3452 129.949 50.527C129.77 50.7088 129.546 50.858 129.276 50.9744C129.006 51.0909 128.689 51.1491 128.326 51.1491ZM128.428 50.4545C128.831 50.4545 129.181 50.3651 129.476 50.1861C129.772 50.0071 129.999 49.7699 130.158 49.4744C130.32 49.1761 130.401 48.848 130.401 48.4901V47.544C130.344 47.598 130.249 47.6463 130.115 47.6889C129.985 47.7315 129.833 47.7699 129.659 47.804C129.489 47.8352 129.319 47.8622 129.148 47.8849C128.978 47.9077 128.824 47.9276 128.688 47.9446C128.319 47.9901 128.003 48.0611 127.742 48.1577C127.48 48.2543 127.28 48.3878 127.141 48.5582C127.002 48.7259 126.932 48.9418 126.932 49.206C126.932 49.6037 127.074 49.9119 127.358 50.1307C127.642 50.3466 127.999 50.4545 128.428 50.4545ZM135.734 51.1364C135.149 51.1364 134.639 50.9901 134.204 50.6974C133.772 50.4048 133.437 50.0043 133.199 49.4957C132.96 48.9872 132.841 48.4077 132.841 47.7571C132.841 47.1009 132.961 46.517 133.203 46.0057C133.447 45.4943 133.785 45.0937 134.217 44.804C134.649 44.5114 135.15 44.3651 135.721 44.3651C136.159 44.3651 136.555 44.4503 136.91 44.6207C137.265 44.7884 137.558 45.0256 137.788 45.3324C138.021 45.6364 138.167 45.9915 138.227 46.3977H137.46C137.38 46.0284 137.189 45.7131 136.885 45.4517C136.583 45.1875 136.2 45.0554 135.734 45.0554C135.316 45.0554 134.947 45.169 134.626 45.3963C134.305 45.6207 134.054 45.9347 133.872 46.3381C133.693 46.7386 133.603 47.2031 133.603 47.7315C133.603 48.2628 133.691 48.733 133.868 49.142C134.044 49.5483 134.291 49.8665 134.609 50.0966C134.93 50.3267 135.305 50.4418 135.734 50.4418C136.024 50.4418 136.288 50.3878 136.527 50.2798C136.768 50.169 136.97 50.0128 137.132 49.8111C137.297 49.6094 137.407 49.3693 137.464 49.0909H138.231C138.174 49.4858 138.034 49.8381 137.809 50.1477C137.588 50.4545 137.299 50.696 136.944 50.8722C136.592 51.0483 136.189 51.1364 135.734 51.1364ZM142.435 44.4545V45.1151H139.311V44.4545H142.435ZM140.287 42.8864H141.05V49.2912C141.05 49.5639 141.097 49.7784 141.191 49.9347C141.284 50.0881 141.407 50.1974 141.557 50.2628C141.708 50.3253 141.868 50.3565 142.039 50.3565C142.138 50.3565 142.223 50.3509 142.294 50.3395C142.365 50.3253 142.428 50.3111 142.482 50.2969L142.644 50.983C142.57 51.0114 142.479 51.0369 142.371 51.0597C142.263 51.0852 142.13 51.098 141.971 51.098C141.692 51.098 141.424 51.0369 141.165 50.9148C140.909 50.7926 140.699 50.6108 140.534 50.3693C140.37 50.1278 140.287 49.8281 140.287 49.4702V42.8864ZM144.166 51V44.4545H144.929V51H144.166ZM144.554 43.3295C144.398 43.3295 144.264 43.277 144.153 43.1719C144.043 43.0639 143.987 42.9347 143.987 42.7841C143.987 42.6335 144.043 42.5057 144.153 42.4006C144.264 42.2926 144.398 42.2386 144.554 42.2386C144.71 42.2386 144.844 42.2926 144.955 42.4006C145.065 42.5057 145.121 42.6335 145.121 42.7841C145.121 42.9347 145.065 43.0639 144.955 43.1719C144.844 43.277 144.71 43.3295 144.554 43.3295ZM149.479 51.1364C148.914 51.1364 148.414 50.9929 147.979 50.706C147.547 50.419 147.209 50.0227 146.965 49.517C146.721 49.0085 146.598 48.4219 146.598 47.7571C146.598 47.0866 146.721 46.4972 146.965 45.9886C147.209 45.4773 147.547 45.0795 147.979 44.7955C148.414 44.5085 148.914 44.3651 149.479 44.3651C150.044 44.3651 150.543 44.5085 150.975 44.7955C151.407 45.0824 151.745 45.4801 151.989 45.9886C152.236 46.4972 152.36 47.0866 152.36 47.7571C152.36 48.4219 152.238 49.0085 151.993 49.517C151.749 50.0227 151.409 50.419 150.975 50.706C150.543 50.9929 150.044 51.1364 149.479 51.1364ZM149.479 50.4418C149.934 50.4418 150.319 50.3196 150.634 50.0753C150.949 49.831 151.188 49.5057 151.35 49.0994C151.515 48.6932 151.597 48.2457 151.597 47.7571C151.597 47.2685 151.515 46.8196 151.35 46.4105C151.188 46.0014 150.949 45.6733 150.634 45.4261C150.319 45.179 149.934 45.0554 149.479 45.0554C149.027 45.0554 148.642 45.179 148.324 45.4261C148.009 45.6733 147.769 46.0014 147.604 46.4105C147.442 46.8196 147.361 47.2685 147.361 47.7571C147.361 48.2457 147.442 48.6932 147.604 49.0994C147.769 49.5057 148.009 49.831 148.324 50.0753C148.64 50.3196 149.025 50.4418 149.479 50.4418ZM154.783 46.9091V51H154.025V44.4545H154.762V45.4815H154.83C154.984 45.1463 155.222 44.8778 155.546 44.6761C155.873 44.4716 156.276 44.3693 156.756 44.3693C157.197 44.3693 157.583 44.4616 157.915 44.6463C158.251 44.8281 158.511 45.0966 158.695 45.4517C158.883 45.8068 158.977 46.2429 158.977 46.7599V51H158.218V46.8068C158.218 46.2699 158.067 45.8452 157.766 45.5327C157.468 45.2202 157.067 45.0639 156.565 45.0639C156.221 45.0639 155.915 45.1378 155.648 45.2855C155.381 45.4332 155.17 45.6463 155.013 45.9247C154.86 46.2003 154.783 46.5284 154.783 46.9091ZM164.507 51V42.2727H165.304V50.2841H169.463V51H164.507ZM172.927 51.1491C172.532 51.1491 172.172 51.0724 171.845 50.919C171.518 50.7628 171.258 50.5384 171.065 50.2457C170.872 49.9503 170.775 49.5923 170.775 49.1719C170.775 48.848 170.836 48.5753 170.958 48.3537C171.081 48.1321 171.254 47.9503 171.478 47.8082C171.703 47.6662 171.968 47.554 172.275 47.4716C172.582 47.3892 172.92 47.3253 173.289 47.2798C173.656 47.2344 173.966 47.1946 174.218 47.1605C174.474 47.1264 174.669 47.0724 174.802 46.9986C174.936 46.9247 175.002 46.8054 175.002 46.6406V46.4872C175.002 46.0412 174.869 45.6903 174.602 45.4347C174.338 45.1761 173.957 45.0469 173.46 45.0469C172.988 45.0469 172.603 45.1506 172.305 45.358C172.01 45.5653 171.802 45.8097 171.683 46.0909L170.963 45.831C171.11 45.473 171.315 45.1875 171.576 44.9744C171.838 44.7585 172.13 44.6037 172.454 44.5099C172.778 44.4134 173.106 44.3651 173.439 44.3651C173.689 44.3651 173.949 44.3977 174.218 44.4631C174.491 44.5284 174.744 44.642 174.977 44.804C175.21 44.9631 175.399 45.1861 175.544 45.473C175.689 45.7571 175.761 46.1179 175.761 46.5554V51H175.002V49.9645H174.956C174.865 50.1577 174.73 50.3452 174.551 50.527C174.372 50.7088 174.147 50.858 173.877 50.9744C173.608 51.0909 173.291 51.1491 172.927 51.1491ZM173.029 50.4545C173.433 50.4545 173.782 50.3651 174.078 50.1861C174.373 50.0071 174.6 49.7699 174.76 49.4744C174.922 49.1761 175.002 48.848 175.002 48.4901V47.544C174.946 47.598 174.85 47.6463 174.717 47.6889C174.586 47.7315 174.434 47.7699 174.261 47.804C174.091 47.8352 173.92 47.8622 173.75 47.8849C173.579 47.9077 173.426 47.9276 173.289 47.9446C172.92 47.9901 172.605 48.0611 172.343 48.1577C172.082 48.2543 171.882 48.3878 171.743 48.5582C171.603 48.7259 171.534 48.9418 171.534 49.206C171.534 49.6037 171.676 49.9119 171.96 50.1307C172.244 50.3466 172.6 50.4545 173.029 50.4545ZM177.936 51V42.2727H178.699V45.7031H178.767C178.853 45.5071 178.975 45.3054 179.134 45.098C179.296 44.8906 179.507 44.7173 179.769 44.5781C180.033 44.4361 180.365 44.3651 180.766 44.3651C181.303 44.3651 181.775 44.5071 182.181 44.7912C182.587 45.0724 182.904 45.4673 183.131 45.9759C183.358 46.4815 183.472 47.071 183.472 47.7443C183.472 48.4205 183.358 49.0128 183.131 49.5213C182.907 50.0298 182.591 50.4261 182.185 50.7102C181.782 50.9943 181.313 51.1364 180.779 51.1364C180.381 51.1364 180.049 51.0653 179.782 50.9233C179.517 50.7812 179.304 50.6065 179.142 50.3991C178.98 50.1889 178.855 49.9844 178.767 49.7855H178.674V51H177.936ZM178.686 47.7315C178.686 48.2599 178.765 48.7287 178.921 49.1378C179.08 49.544 179.307 49.8636 179.603 50.0966C179.901 50.3267 180.262 50.4418 180.685 50.4418C181.12 50.4418 181.488 50.3224 181.789 50.0838C182.09 49.8423 182.319 49.517 182.475 49.108C182.631 48.6989 182.709 48.2401 182.709 47.7315C182.709 47.2287 182.631 46.7756 182.475 46.3722C182.321 45.9687 182.094 45.6491 181.793 45.4134C181.492 45.1747 181.123 45.0554 180.685 45.0554C180.259 45.0554 179.897 45.1705 179.598 45.4006C179.303 45.6278 179.077 45.9432 178.921 46.3466C178.765 46.7472 178.686 47.2088 178.686 47.7315Z" fill="black"/>
<path d="M1.2642 19V4.45455H7.00284C8.10606 4.45455 9.04593 4.66525 9.82244 5.08665C10.599 5.50331 11.1908 6.08333 11.598 6.8267C12.0099 7.56534 12.2159 8.41761 12.2159 9.38352C12.2159 10.3494 12.0076 11.2017 11.5909 11.9403C11.1742 12.679 10.5705 13.2543 9.77983 13.6662C8.99384 14.0781 8.04214 14.2841 6.92472 14.2841H3.26705V11.8196H6.42756C7.01941 11.8196 7.5071 11.7178 7.89062 11.5142C8.27888 11.3059 8.56771 11.0194 8.7571 10.6548C8.95123 10.2855 9.0483 9.86174 9.0483 9.38352C9.0483 8.90057 8.95123 8.47917 8.7571 8.11932C8.56771 7.75473 8.27888 7.47301 7.89062 7.27415C7.50237 7.07055 7.00994 6.96875 6.41335 6.96875H4.33949V19H1.2642ZM14.2134 19V4.45455H24.0146V6.99006H17.2887V10.456H23.5103V12.9915H17.2887V16.4645H24.043V19H14.2134ZM28.9666 19H25.6712L30.6925 4.45455H34.6555L39.6697 19H36.3743L32.7308 7.77841H32.6172L28.9666 19ZM28.7607 13.2827H36.5447V15.6832H28.7607V13.2827ZM53.5707 9.54688H50.4599C50.4031 9.14441 50.2871 8.78693 50.1119 8.47443C49.9367 8.1572 49.7118 7.88731 49.4371 7.66477C49.1625 7.44223 48.8453 7.27178 48.4854 7.15341C48.1303 7.03504 47.7444 6.97585 47.3278 6.97585C46.5749 6.97585 45.9192 7.16288 45.3604 7.53693C44.8017 7.90625 44.3685 8.44602 44.0607 9.15625C43.753 9.86174 43.5991 10.7187 43.5991 11.7273C43.5991 12.7642 43.753 13.6354 44.0607 14.3409C44.3732 15.0464 44.8088 15.5791 45.3675 15.9389C45.9263 16.2988 46.5726 16.4787 47.3065 16.4787C47.7184 16.4787 48.0996 16.4242 48.4499 16.3153C48.805 16.2064 49.1199 16.0478 49.3945 15.8395C49.6692 15.6264 49.8964 15.3684 50.0763 15.0653C50.261 14.7623 50.3888 14.4167 50.4599 14.0284L53.5707 14.0426C53.4902 14.7102 53.2889 15.3542 52.967 15.9744C52.6497 16.59 52.2212 17.1416 51.6815 17.6293C51.1464 18.1122 50.5072 18.4957 49.7638 18.7798C49.0252 19.0592 48.1895 19.1989 47.2567 19.1989C45.9594 19.1989 44.7994 18.9053 43.7766 18.3182C42.7586 17.7311 41.9537 16.8812 41.3619 15.7685C40.7747 14.6558 40.4812 13.3087 40.4812 11.7273C40.4812 10.1411 40.7795 8.79167 41.3761 7.67898C41.9727 6.56629 42.7823 5.71875 43.805 5.13636C44.8278 4.54924 45.9783 4.25568 47.2567 4.25568C48.0996 4.25568 48.8808 4.37405 49.6005 4.6108C50.3249 4.84754 50.9665 5.19318 51.5252 5.64773C52.0839 6.09754 52.5385 6.64915 52.8888 7.30256C53.244 7.95597 53.4712 8.70407 53.5707 9.54688ZM55.7759 19V4.45455H58.8512V10.456H65.0941V4.45455H68.1623V19H65.0941V12.9915H58.8512V19H55.7759ZM75.3267 19V4.45455H78.402V16.4645H84.6378V19H75.3267ZM89.7283 19.206C89.0323 19.206 88.4121 19.0852 87.8675 18.8438C87.323 18.5975 86.8922 18.2353 86.5749 17.7571C86.2624 17.2741 86.1062 16.6728 86.1062 15.9531C86.1062 15.3471 86.2174 14.8381 86.44 14.4261C86.6625 14.0142 86.9656 13.6828 87.3491 13.4318C87.7326 13.1809 88.1682 12.9915 88.6559 12.8636C89.1483 12.7358 89.6644 12.6458 90.2042 12.5938C90.8387 12.5275 91.35 12.4659 91.7383 12.4091C92.1265 12.3475 92.4083 12.2576 92.5835 12.1392C92.7586 12.0208 92.8462 11.8456 92.8462 11.6136V11.571C92.8462 11.1212 92.7042 10.7732 92.4201 10.527C92.1407 10.2808 91.743 10.1577 91.2269 10.1577C90.6824 10.1577 90.2492 10.2784 89.9272 10.5199C89.6052 10.7566 89.3922 11.0549 89.288 11.4148L86.4897 11.1875C86.6317 10.5246 86.9111 9.9517 87.3278 9.46875C87.7444 8.98106 88.2818 8.60701 88.94 8.34659C89.6029 8.08144 90.3699 7.94886 91.2411 7.94886C91.8472 7.94886 92.4272 8.01989 92.9812 8.16193C93.5399 8.30398 94.0347 8.52415 94.4656 8.82244C94.9012 9.12074 95.2444 9.50426 95.4954 9.97301C95.7463 10.437 95.8718 10.9934 95.8718 11.642V19H93.0025V17.4872H92.9173C92.7421 17.8281 92.5077 18.1288 92.2141 18.3892C91.9206 18.6449 91.5678 18.8461 91.1559 18.9929C90.744 19.1349 90.2681 19.206 89.7283 19.206ZM90.5948 17.1179C91.0399 17.1179 91.4329 17.0303 91.7738 16.8551C92.1147 16.6752 92.3822 16.4337 92.5763 16.1307C92.7705 15.8277 92.8675 15.4844 92.8675 15.1009V13.9432C92.7728 14.0047 92.6426 14.0616 92.4769 14.1136C92.3159 14.161 92.1336 14.206 91.93 14.2486C91.7264 14.2865 91.5228 14.322 91.3192 14.3551C91.1156 14.3835 90.931 14.4096 90.7653 14.4332C90.4102 14.4853 90.1 14.5682 89.8349 14.6818C89.5697 14.7955 89.3638 14.9493 89.217 15.1435C89.0702 15.3329 88.9968 15.5696 88.9968 15.8537C88.9968 16.2656 89.146 16.5805 89.4442 16.7983C89.7473 17.0114 90.1308 17.1179 90.5948 17.1179ZM98.2759 19V4.45455H101.301V9.9233H101.394C101.526 9.62973 101.718 9.33144 101.969 9.02841C102.225 8.72064 102.556 8.46496 102.963 8.26136C103.375 8.05303 103.887 7.94886 104.498 7.94886C105.293 7.94886 106.027 8.1572 106.699 8.57386C107.372 8.9858 107.909 9.60843 108.311 10.4418C108.714 11.2704 108.915 12.3097 108.915 13.5597C108.915 14.7765 108.719 15.804 108.326 16.642C107.937 17.4754 107.407 18.1075 106.735 18.5384C106.067 18.9645 105.319 19.1776 104.49 19.1776C103.903 19.1776 103.404 19.0805 102.992 18.8864C102.585 18.6922 102.251 18.4484 101.99 18.1548C101.73 17.8565 101.531 17.5559 101.394 17.2528H101.259V19H98.2759ZM101.238 13.5455C101.238 14.1941 101.328 14.7599 101.507 15.2429C101.687 15.7259 101.948 16.1023 102.289 16.3722C102.63 16.6373 103.044 16.7699 103.532 16.7699C104.024 16.7699 104.441 16.6349 104.782 16.3651C105.123 16.0904 105.381 15.7116 105.556 15.2287C105.736 14.741 105.826 14.1799 105.826 13.5455C105.826 12.9157 105.738 12.3617 105.563 11.8835C105.388 11.4053 105.13 11.0312 104.789 10.7614C104.448 10.4915 104.029 10.3565 103.532 10.3565C103.039 10.3565 102.623 10.4867 102.282 10.7472C101.945 11.0076 101.687 11.3769 101.507 11.8551C101.328 12.3333 101.238 12.8968 101.238 13.5455Z" fill="black"/>
<path d="M1.2642 19V4.45455H7.00284C8.10606 4.45455 9.04593 4.66525 9.82244 5.08665C10.599 5.50331 11.1908 6.08333 11.598 6.8267C12.0099 7.56534 12.2159 8.41761 12.2159 9.38352C12.2159 10.3494 12.0076 11.2017 11.5909 11.9403C11.1742 12.679 10.5705 13.2543 9.77983 13.6662C8.99384 14.0781 8.04214 14.2841 6.92472 14.2841H3.26705V11.8196H6.42756C7.01941 11.8196 7.5071 11.7178 7.89062 11.5142C8.27888 11.3059 8.56771 11.0194 8.7571 10.6548C8.95123 10.2855 9.0483 9.86174 9.0483 9.38352C9.0483 8.90057 8.95123 8.47917 8.7571 8.11932C8.56771 7.75473 8.27888 7.47301 7.89062 7.27415C7.50237 7.07055 7.00994 6.96875 6.41335 6.96875H4.33949V19H1.2642ZM14.2134 19V4.45455H24.0146V6.99006H17.2887V10.456H23.5103V12.9915H17.2887V16.4645H24.043V19H14.2134ZM28.9666 19H25.6712L30.6925 4.45455H34.6555L39.6697 19H36.3743L32.7308 7.77841H32.6172L28.9666 19ZM28.7607 13.2827H36.5447V15.6832H28.7607V13.2827ZM53.5707 9.54688H50.4599C50.4031 9.14441 50.2871 8.78693 50.1119 8.47443C49.9367 8.1572 49.7118 7.88731 49.4371 7.66477C49.1625 7.44223 48.8453 7.27178 48.4854 7.15341C48.1303 7.03504 47.7444 6.97585 47.3278 6.97585C46.5749 6.97585 45.9192 7.16288 45.3604 7.53693C44.8017 7.90625 44.3685 8.44602 44.0607 9.15625C43.753 9.86174 43.5991 10.7187 43.5991 11.7273C43.5991 12.7642 43.753 13.6354 44.0607 14.3409C44.3732 15.0464 44.8088 15.5791 45.3675 15.9389C45.9263 16.2988 46.5726 16.4787 47.3065 16.4787C47.7184 16.4787 48.0996 16.4242 48.4499 16.3153C48.805 16.2064 49.1199 16.0478 49.3945 15.8395C49.6692 15.6264 49.8964 15.3684 50.0763 15.0653C50.261 14.7623 50.3888 14.4167 50.4599 14.0284L53.5707 14.0426C53.4902 14.7102 53.2889 15.3542 52.967 15.9744C52.6497 16.59 52.2212 17.1416 51.6815 17.6293C51.1464 18.1122 50.5072 18.4957 49.7638 18.7798C49.0252 19.0592 48.1895 19.1989 47.2567 19.1989C45.9594 19.1989 44.7994 18.9053 43.7766 18.3182C42.7586 17.7311 41.9537 16.8812 41.3619 15.7685C40.7747 14.6558 40.4812 13.3087 40.4812 11.7273C40.4812 10.1411 40.7795 8.79167 41.3761 7.67898C41.9727 6.56629 42.7823 5.71875 43.805 5.13636C44.8278 4.54924 45.9783 4.25568 47.2567 4.25568C48.0996 4.25568 48.8808 4.37405 49.6005 4.6108C50.3249 4.84754 50.9665 5.19318 51.5252 5.64773C52.0839 6.09754 52.5385 6.64915 52.8888 7.30256C53.244 7.95597 53.4712 8.70407 53.5707 9.54688ZM55.7759 19V4.45455H58.8512V10.456H65.0941V4.45455H68.1623V19H65.0941V12.9915H58.8512V19H55.7759Z" fill="url(#paint0_radial_2_4)"/>
<path d="M75.2642 19V4.45455H78.3395V16.4645H84.5753V19H75.2642ZM89.6658 19.206C88.9698 19.206 88.3496 19.0852 87.805 18.8438C87.2605 18.5975 86.8297 18.2353 86.5124 17.7571C86.1999 17.2741 86.0437 16.6728 86.0437 15.9531C86.0437 15.3471 86.1549 14.8381 86.3775 14.4261C86.6 14.0142 86.9031 13.6828 87.2866 13.4318C87.6701 13.1809 88.1057 12.9915 88.5934 12.8636C89.0858 12.7358 89.6019 12.6458 90.1417 12.5938C90.7762 12.5275 91.2875 12.4659 91.6758 12.4091C92.064 12.3475 92.3458 12.2576 92.521 12.1392C92.6961 12.0208 92.7837 11.8456 92.7837 11.6136V11.571C92.7837 11.1212 92.6417 10.7732 92.3576 10.527C92.0782 10.2808 91.6805 10.1577 91.1644 10.1577C90.6199 10.1577 90.1867 10.2784 89.8647 10.5199C89.5427 10.7566 89.3297 11.0549 89.2255 11.4148L86.4272 11.1875C86.5692 10.5246 86.8486 9.9517 87.2653 9.46875C87.6819 8.98106 88.2193 8.60701 88.8775 8.34659C89.5404 8.08144 90.3074 7.94886 91.1786 7.94886C91.7847 7.94886 92.3647 8.01989 92.9187 8.16193C93.4774 8.30398 93.9722 8.52415 94.4031 8.82244C94.8387 9.12074 95.1819 9.50426 95.4329 9.97301C95.6838 10.437 95.8093 10.9934 95.8093 11.642V19H92.94V17.4872H92.8548C92.6796 17.8281 92.4452 18.1288 92.1516 18.3892C91.8581 18.6449 91.5053 18.8461 91.0934 18.9929C90.6815 19.1349 90.2056 19.206 89.6658 19.206ZM90.5323 17.1179C90.9774 17.1179 91.3704 17.0303 91.7113 16.8551C92.0522 16.6752 92.3197 16.4337 92.5138 16.1307C92.708 15.8277 92.805 15.4844 92.805 15.1009V13.9432C92.7103 14.0047 92.5801 14.0616 92.4144 14.1136C92.2534 14.161 92.0711 14.206 91.8675 14.2486C91.6639 14.2865 91.4603 14.322 91.2567 14.3551C91.0531 14.3835 90.8685 14.4096 90.7028 14.4332C90.3477 14.4853 90.0375 14.5682 89.7724 14.6818C89.5072 14.7955 89.3013 14.9493 89.1545 15.1435C89.0077 15.3329 88.9343 15.5696 88.9343 15.8537C88.9343 16.2656 89.0835 16.5805 89.3817 16.7983C89.6848 17.0114 90.0683 17.1179 90.5323 17.1179ZM98.2134 19V4.45455H101.239V9.9233H101.331C101.464 9.62973 101.656 9.33144 101.907 9.02841C102.162 8.72064 102.494 8.46496 102.901 8.26136C103.313 8.05303 103.824 7.94886 104.435 7.94886C105.23 7.94886 105.964 8.1572 106.637 8.57386C107.309 8.9858 107.846 9.60843 108.249 10.4418C108.651 11.2704 108.853 12.3097 108.853 13.5597C108.853 14.7765 108.656 15.804 108.263 16.642C107.875 17.4754 107.345 18.1075 106.672 18.5384C106.005 18.9645 105.257 19.1776 104.428 19.1776C103.841 19.1776 103.341 19.0805 102.929 18.8864C102.522 18.6922 102.188 18.4484 101.928 18.1548C101.667 17.8565 101.469 17.5559 101.331 17.2528H101.196V19H98.2134ZM101.175 13.5455C101.175 14.1941 101.265 14.7599 101.445 15.2429C101.625 15.7259 101.885 16.1023 102.226 16.3722C102.567 16.6373 102.981 16.7699 103.469 16.7699C103.962 16.7699 104.378 16.6349 104.719 16.3651C105.06 16.0904 105.318 15.7116 105.493 15.2287C105.673 14.741 105.763 14.1799 105.763 13.5455C105.763 12.9157 105.676 12.3617 105.5 11.8835C105.325 11.4053 105.067 11.0312 104.726 10.7614C104.385 10.4915 103.966 10.3565 103.469 10.3565C102.977 10.3565 102.56 10.4867 102.219 10.7472C101.883 11.0076 101.625 11.3769 101.445 11.8551C101.265 12.3333 101.175 12.8968 101.175 13.5455Z" fill="black"/>
<defs>
<radialGradient id="paint0_radial_2_4" cx="0" cy="0" r="1" gradientUnits="userSpaceOnUse" gradientTransform="translate(1.5 12) scale(66.5 22.8)">
<stop stop-color="#EC0B33"/>
<stop offset="0.497876" stop-color="#ED5532"/>
<stop offset="1" stop-color="#FDB36D"/>
</radialGradient>
</defs>
</svg>
